<svg xmlns="http://www.w3.org/2000/svg" xmlns:xlink="http://www.w3.org/1999/xlink" fill="none" version="1.1" width="20" height="20" viewBox="0 0 20 20"><clipPath id="master_svg0_0_7547"><rect x="0" y="0" width="20" height="20" rx="0"/></clipPath><g clip-path="url(#master_svg0_0_7547)" style="mix-blend-mode:passthrough"><g><g style="mix-blend-mode:passthrough"><path d="M18,18C18,18,2,18,2,18C2,18,2,2,2,2C2,2,18,2,18,2C18,2,18,18,18,18ZM16.7682,16.877299999999998C16.7682,16.877299999999998,16.7682,13.0399,16.7682,13.0399C16.7682,13.0399,3.23385,13.0399,3.23385,13.0399C3.23385,13.0399,3.23385,16.877299999999998,3.23385,16.877299999999998C3.23385,16.877299999999998,16.7661,16.877299999999998,16.7661,16.877299999999998C16.7661,16.877299999999998,16.766199999999998,16.877299999999998,16.766199999999998,16.877299999999998C16.766199999999998,16.877299999999998,16.7682,16.877299999999998,16.7682,16.877299999999998ZM16.7682,11.91331C16.7682,11.91331,16.7682,8.083770000000001,16.7682,8.083770000000001C16.7682,8.083770000000001,3.23385,8.083770000000001,3.23385,8.083770000000001C3.23385,8.083770000000001,3.23385,11.91331,3.23385,11.91331C3.23385,11.91331,16.7661,11.91331,16.7661,11.91331C16.7661,11.91331,16.766199999999998,11.91331,16.766199999999998,11.91331C16.766199999999998,11.91331,16.7682,11.91331,16.7682,11.91331ZM16.7682,6.95225C16.7682,6.95225,16.7682,3.12271,16.7682,3.12271C16.7682,3.12271,3.23385,3.12271,3.23385,3.12271C3.23385,3.12271,3.23385,6.95225,3.23385,6.95225C3.23385,6.95225,3.23485,6.95225,3.23485,6.95225C3.23485,6.95225,16.7682,6.95225,16.7682,6.95225ZM11.96614,5.61303C11.96614,5.61303,15.0528,5.61303,15.0528,5.61303C15.0528,5.61303,15.0528,4.47074,15.0528,4.47074C15.0528,4.47074,11.96614,4.47074,11.96614,4.47074C11.96614,4.47074,11.96614,4.47076,11.96614,4.47076C11.96614,4.47076,11.96614,5.61303,11.96614,5.61303ZM11.96614,10.56429C11.96614,10.56429,14.9354,10.56429,14.9354,10.56429C14.9354,10.56429,14.9354,9.42397,14.9354,9.42397C14.9354,9.42397,11.96614,9.42397,11.96614,9.42397C11.96614,9.42397,11.96614,9.42395,11.96614,9.42395C11.96614,9.42395,11.96614,10.56429,11.96614,10.56429ZM11.96614,15.5293C11.96614,15.5293,14.9354,15.5293,14.9354,15.5293C14.9354,15.5293,14.9354,14.388,14.9354,14.388C14.9354,14.388,11.96614,14.388,11.96614,14.388C11.96614,14.388,11.96614,14.3879,11.96614,14.3879C11.96614,14.3879,11.96614,15.5293,11.96614,15.5293Z" fill="#9FA7B2" fill-opacity="1"/></g></g></g></svg>