<svg xmlns="http://www.w3.org/2000/svg" xmlns:xlink="http://www.w3.org/1999/xlink" fill="none" version="1.1" width="20" height="20" viewBox="0 0 20 20"><clipPath id="master_svg0_0_7489"><rect x="0" y="0" width="20" height="20" rx="0"/></clipPath><g clip-path="url(#master_svg0_0_7489)" style="mix-blend-mode:passthrough"><g><g style="mix-blend-mode:passthrough"><path d="M17,4C17.5516,4,18,4.448438,18,5C18,5,18,16,18,16C18,16.5516,17.5516,17,17,17C17,17,3,17,3,17C2.448438,17,2,16.5516,2,16C2,16,2,5,2,5C2,4.448438,2.448438,4,3,4C3,4,17,4,17,4ZM7,13.25C7,13.1125,6.8875,13,6.75,13C6.75,13,3.25,13,3.25,13C3.1125,13,3,13.1125,3,13.25C3,13.25,3,15.75,3,15.75C3,15.8875,3.1125,16,3.25,16C3.25,16,6.75,16,6.75,16C6.8875,16,7,15.8875,7,15.75C7,15.75,7,13.25,7,13.25ZM7,9.25C7,9.1125,6.8875,9,6.75,9C6.75,9,3.25,9,3.25,9C3.1125,9,3,9.1125,3,9.25C3,9.25,3,11.75,3,11.75C3,11.8875,3.1125,12,3.25,12C3.25,12,6.75,12,6.75,12C6.8875,12,7,11.8875,7,11.75C7,11.75,7,9.25,7,9.25ZM7,5.25C7,5.1125,6.8875,5,6.75,5C6.75,5,3.25,5,3.25,5C3.1125,5,3,5.1125,3,5.25C3,5.25,3,7.75,3,7.75C3,7.8875,3.1125,8,3.25,8C3.25,8,6.75,8,6.75,8C6.8875,8,7,7.8875,7,7.75C7,7.75,7,5.25,7,5.25ZM12,13.25C12,13.1125,11.8875,13,11.75,13C11.75,13,8.25,13,8.25,13C8.1125,13,8,13.1125,8,13.25C8,13.25,8,15.75,8,15.75C8,15.8875,8.1125,16,8.25,16C8.25,16,11.75,16,11.75,16C11.8875,16,12,15.8875,12,15.75C12,15.75,12,13.25,12,13.25ZM12,9.25C12,9.1125,11.8875,9,11.75,9C11.75,9,8.25,9,8.25,9C8.1125,9,8,9.1125,8,9.25C8,9.25,8,11.75,8,11.75C8,11.8875,8.1125,12,8.25,12C8.25,12,11.75,12,11.75,12C11.8875,12,12,11.8875,12,11.75C12,11.75,12,9.25,12,9.25ZM12,5.25C12,5.1125,11.8875,5,11.75,5C11.75,5,8.25,5,8.25,5C8.1125,5,8,5.1125,8,5.25C8,5.25,8,7.75,8,7.75C8,7.8875,8.1125,8,8.25,8C8.25,8,11.75,8,11.75,8C11.8875,8,12,7.8875,12,7.75C12,7.75,12,5.25,12,5.25ZM17,13.25C17,13.1125,16.8875,13,16.75,13C16.75,13,13.25,13,13.25,13C13.1125,13,13,13.1125,13,13.25C13,13.25,13,15.75,13,15.75C13,15.8875,13.1125,16,13.25,16C13.25,16,16.75,16,16.75,16C16.8875,16,17,15.8875,17,15.75C17,15.75,17,13.25,17,13.25ZM17,9.25C17,9.1125,16.8875,9,16.75,9C16.75,9,13.25,9,13.25,9C13.1125,9,13,9.1125,13,9.25C13,9.25,13,11.75,13,11.75C13,11.8875,13.1125,12,13.25,12C13.25,12,16.75,12,16.75,12C16.8875,12,17,11.8875,17,11.75C17,11.75,17,9.25,17,9.25ZM17,5.25C17,5.1125,16.8875,5,16.75,5C16.75,5,13.25,5,13.25,5C13.1125,5,13,5.1125,13,5.25C13,5.25,13,7.75,13,7.75C13,7.8875,13.1125,8,13.25,8C13.25,8,16.75,8,16.75,8C16.8875,8,17,7.8875,17,7.75C17,7.75,17,5.25,17,5.25Z" fill="#9FA7B2" fill-opacity="1"/></g></g></g></svg>