<svg xmlns="http://www.w3.org/2000/svg" xmlns:xlink="http://www.w3.org/1999/xlink" fill="none" version="1.1" width="16" height="16" viewBox="0 0 16 16"><clipPath id="master_svg0_0_6265"><rect x="0" y="0" width="16" height="16" rx="0"/></clipPath><g clip-path="url(#master_svg0_0_6265)" style="mix-blend-mode:passthrough"><g><g style="mix-blend-mode:passthrough"><path d="M14,7.89291C14,7.89291,14,8.108550000000001,14,8.108550000000001C13.9799,9.00174,13.767,9.89244,13.3625,10.69067C12.9701,11.47682,12.3981,12.1732,11.70834,12.7171C11.00103,13.274,10.16665,13.6692,9.28658,13.8607C8.930250000000001,13.9411,8.564540000000001,13.9772,8.20025,14C8.20025,14,7.80106,14,7.80106,14C7.3229,13.9745,6.84464,13.9103,6.38393,13.779C5.26684,13.4696,4.247590000000001,12.8241,3.48541,11.9509C2.949664,11.34156,2.539784,10.62101,2.290668,9.84829C2.108522,9.2857,2.014725,8.6978,2,8.107199999999999C2,8.107199999999999,2,7.8928,2,7.8928C2.0213816,6.79865,2.344223,5.7097999999999995,2.934939,4.78568C3.56176,3.79867,4.48198,3.00055,5.549440000000001,2.52365C6.25675,2.202213,7.02689,2.0348822,7.80106,2C7.80106,2,8.20025,2,8.20025,2C8.89132,2.0321749,9.58118,2.1674350000000002,10.22414,2.427333C11.56623,2.959,12.698,3.9929699999999997,13.3503,5.2799700000000005C13.3503,5.2799700000000005,13.3503,5.2799700000000005,13.3503,5.2799700000000005C13.7643,6.08611,13.9839,6.98753,14,7.89291ZM12.5855,5.66815C12.4098,5.32357,12.1963,5.00096,11.94929,4.70665C11.64507,4.8883,11.32907,5.0480599999999995,11.00355,5.1848C11.2549,5.957050000000001,11.408,6.75974,11.45902,7.57272C11.45902,7.57272,13.128,7.57272,13.128,7.57272C13.128,7.57272,13.128,7.57272,13.128,7.57272C13.0717,6.91121,12.8896,6.25896,12.5855,5.66815ZM10.61132,8.61866C10.61395,8.555769999999999,10.61657,8.49278,10.61798,8.429780000000001C10.61798,8.429780000000001,8.43061,8.429780000000001,8.43061,8.429780000000001C8.43061,8.429780000000001,8.43061,10.1414,8.43061,10.1414C8.97311,10.18024,9.5129,10.26188,10.03664,10.41067C10.13033,10.43736,10.22364,10.46547,10.31652,10.49501C10.31652,10.49501,10.31652,10.49501,10.31652,10.49501C10.48113,9.88262,10.57999,9.25338,10.61132,8.61866ZM10.05399,11.30928C9.9723,11.28377,9.889289999999999,11.25836,9.80629,11.23566C9.357479999999999,11.10832,8.89535,11.03605,8.43061,11.00128C8.43061,11.00128,8.43061,13.124,8.43061,13.124C8.65693,13.1039,8.88335,13.0732,9.105640000000001,13.0235C9.1365,13.0169,9.167259999999999,13.0102,9.19822,13.0008C9.54326,12.4714,9.830269999999999,11.90409,10.05399,11.30928ZM6.12543,4.637090000000001C6.16567,4.64917,6.20581,4.66125,6.24595,4.67198C6.67863,4.79516,7.12462,4.866070000000001,7.57333,4.9023C7.57333,4.9023,7.57333,2.874554,7.57333,2.874554C7.35152,2.8947279999999997,7.13104,2.928279,6.91302,2.9750360000000002C6.91302,2.9750360000000002,6.91302,2.9750360000000002,6.91302,2.9750360000000002C6.59379,3.49845,6.32976,4.05564,6.12543,4.637090000000001ZM8.89414,2.93755C8.74003,2.910686,8.586030000000001,2.88934,8.43061,2.875908C8.43061,2.875908,8.43061,4.9116800000000005,8.43061,4.9116800000000005C8.79087,4.88616,9.15254,4.84337,9.50483,4.76434C9.634730000000001,4.736219999999999,9.76332,4.7040500000000005,9.891919999999999,4.6679200000000005C9.891919999999999,4.6679200000000005,9.891919999999999,4.6679200000000005,9.891919999999999,4.6679200000000005C9.62474,4.05351,9.28994,3.4729,8.89414,2.93755ZM5.62579,7.57272C5.62579,7.57272,7.57333,7.57272,7.57333,7.57272C7.57333,7.57272,7.57333,5.76332,7.57333,5.76332C7.04565,5.72459,6.5219,5.64285,6.01429,5.49822C5.97001,5.48614,5.92453,5.47271,5.88025,5.4593799999999995C5.71099,6.15023,5.62551,6.86011,5.62579,7.57272ZM7.57343,8.431239999999999C7.57343,8.431239999999999,5.66603,8.431239999999999,5.66603,8.431239999999999C5.7300699999999996,9.094190000000001,5.868539999999999,9.7472,6.07863,10.37714C6.17364,10.35163,6.26744,10.32893,6.36255,10.30884C6.76032,10.21908,7.16617,10.17222,7.57333,10.14276C7.57333,10.14276,7.57333,8.429780000000001,7.57333,8.429780000000001C7.57333,8.429780000000001,7.57343,8.429780000000001,7.57343,8.429780000000001C7.57343,8.429780000000001,7.57343,8.431239999999999,7.57343,8.431239999999999ZM6.39199,11.18068C6.70338,11.87437,7.10046,12.5235,7.57333,13.1119C7.57333,13.1119,7.57333,11.00128,7.57333,11.00128C7.22779,11.02658,6.88357,11.06823,6.546,11.14455C6.546,11.14455,6.546,11.14455,6.546,11.14455C6.49507,11.15674,6.44424,11.16871,6.39199,11.18068ZM5.5683,11.43788C5.24574,11.56245,4.93277,11.71201,4.63205,11.8853C5.1352,12.3219,5.71433,12.6554,6.33844,12.8681C6.33844,12.8681,6.33844,12.8681,6.33844,12.8681C6.0433,12.4146,5.78568,11.9361,5.5683,11.43788ZM10.59922,7.57272C10.54942,6.85808,10.41353,6.15264,10.19469,5.47271C10.02725,5.52098,9.8584,5.56387,9.68839,5.6013C9.275780000000001,5.693770000000001,8.8539,5.74062,8.43061,5.77009C8.43061,5.77009,8.43061,7.57272,8.43061,7.57272C8.43061,7.57272,8.43061,7.57272,8.43061,7.57272C8.43061,7.57272,10.59922,7.57272,10.59922,7.57272ZM10.18117,3.34323C10.37534,3.67759,10.54893,4.02425,10.70088,4.38115C10.91339,4.29085,11.12129,4.1894,11.32377,4.07721C11.32377,4.07721,11.32377,4.07721,11.32377,4.07721C10.97602,3.78146,10.5918,3.53465,10.18117,3.34323ZM4.72575,4.0383700000000005C4.91921,4.1485199999999995,5.117649999999999,4.24908,5.320399999999999,4.33971C5.433590000000001,4.01832,5.56372,3.70357,5.71021,3.3968499999999997C5.71021,3.3968499999999997,5.71021,3.3968499999999997,5.71021,3.3968499999999997C5.359579999999999,3.57151,5.029310000000001,3.78673,4.72575,4.0383700000000005ZM2.876039,7.57272C2.876039,7.57272,4.7687100000000004,7.57272,4.7687100000000004,7.57272C4.76812,6.76002,4.86942,5.95066,5.070069999999999,5.16481C4.73335,5.0202,4.40702,4.8510100000000005,4.09358,4.65854C3.93552,4.8431,3.79049,5.03911,3.6595899999999997,5.245089999999999C3.6595899999999997,5.245089999999999,3.6595899999999997,5.245089999999999,3.6595899999999997,5.245089999999999C3.2135,5.94283,2.94563,6.74908,2.876039,7.57272ZM4.01985,11.25159C4.41535,11.00832,4.8314,10.80259,5.26291,10.63694C5.02517,9.922450000000001,4.87181,9.18095,4.80613,8.42853C4.80613,8.42853,2.87735,8.42853,2.87735,8.42853C2.910834,8.820879999999999,2.985872,9.20927,3.10771,9.58433C3.10771,9.58433,3.10771,9.58433,3.10771,9.58433C3.30641,10.19486,3.61598,10.76071,4.01985,11.25159ZM11.18036,12.0433C11.24488,11.99207,11.30831,11.9394,11.37057,11.8853C11.37057,11.8853,11.3505,11.8853,11.3505,11.8853C11.18793,11.79168,11.02172,11.70498,10.85227,11.62541C10.73763,11.92956,10.60751,12.2273,10.46246,12.5172C10.46246,12.5172,10.46246,12.5172,10.46246,12.5172C10.71411,12.3801,10.95424,12.2216,11.18036,12.0433ZM12.599,10.30488C12.895,9.720939999999999,13.0704,9.07953,13.1267,8.42863C13.1267,8.42863,11.47385,8.42863,11.47385,8.42863C11.47244,8.50496,11.46981,8.582740000000001,11.46578,8.65896C11.43092,9.38547,11.31498,10.10541,11.12025,10.80448C11.4148,10.93832,11.70107,11.0908,11.97742,11.26107C11.97742,11.26107,11.97742,11.26107,11.97742,11.26107C12.2196,10.96812,12.4282,10.64726,12.599,10.30488Z" fill="#4E5969" fill-opacity="1"/></g></g></g></svg>