<svg xmlns="http://www.w3.org/2000/svg" xmlns:xlink="http://www.w3.org/1999/xlink" version="1.1" width="20" height="20" viewBox="0 0 20 20"><g style="mix-blend-mode:passthrough"><g><g style="mix-blend-mode:passthrough"><rect x="0" y="0" width="20" height="20" rx="0" fill-opacity="0"/></g><g style="mix-blend-mode:passthrough" transform="matrix(1,5.5511147922535377e-17,-5.551115123125783e-17,1,0,0)"><path d="M3.814626983566284,2.725325238418579C3.5142269835662843,2.424921738418579,3.0271779835662844,2.424921738418579,2.7267749835662842,2.725325238418579C2.426371383566284,3.025728238418579,2.4263714835662844,3.5127802384185793,2.7267749835662842,3.813180238418579L8.709456983566284,9.79586023841858L2.725031983566284,15.78030023841858C2.424628483566284,16.08070023841858,2.424628483566284,16.56770023841858,2.725031983566284,16.868100238418577C3.025434983566284,17.168600238418577,3.5124869835662844,17.168600238418577,3.812886983566284,16.868100238418577L9.797316983566283,10.88372023841858L15.781006983566284,16.86750023841858C16.081406983566282,17.16790023841858,16.568506983566284,17.16790023841858,16.868906983566283,16.86750023841858C17.169306983566287,16.56710023841858,17.169306983566287,16.080000238418577,16.868906983566283,15.77960023841858L10.885166983566284,9.79586023841858L16.867206983566284,3.813870238418579C17.167606983566284,3.5134602384185794,17.167606983566284,3.026412238418579,16.867206983566284,2.7260082384185793C16.566806983566284,2.425605038418579,16.079706983566282,2.425606038418579,15.779306983566284,2.726009238418579L9.797316983566283,8.708010238418579L3.814626983566284,2.725325238418579Z" fill-rule="evenodd" fill-opacity="1"/></g></g></g></svg>