<svg xmlns="http://www.w3.org/2000/svg" xmlns:xlink="http://www.w3.org/1999/xlink" fill="none" version="1.1" width="56.756491005420685" height="46.83075934648514" viewBox="0 0 56.756491005420685 46.83075934648514"><g style="mix-blend-mode:passthrough"><path d="M35.51922115883827,6.454981158838272C35.51922115883827,6.454981158838272,33.64572115883827,2.405751158838272,33.64572115883827,2.405751158838272C33.64572115883827,2.405751158838272,38.20542115883827,4.187411158838272,38.20542115883827,4.187411158838272C40.21792115883827,2.891661158838272,42.293321158838275,3.1076211588382723,43.07942115883827,3.377561158838272C43.07942115883827,3.377561158838272,45.75232115883827,0.4621211588382721,45.75232115883827,0.4621211588382721C45.75232115883827,0.4621211588382721,45.75232115883827,4.187411158838272,45.75232115883827,4.187411158838272C50.14142115883827,6.131041158838272,48.25462115883827,13.095721158838272,46.210721158838275,14.391421158838272C46.525121158838274,16.497021158838272,46.22402115883827,22.166021158838273,45.75232115883827,25.08142115883827C45.75232115883827,27.02502115883827,47.010121158838274,28.96872115883827,47.32462115883827,28.96872115883827C47.57622115883827,28.96872115883827,50.36432115883827,30.15642115883827,51.72702115883827,30.750321158838272C54.997321158838275,31.786921158838272,56.12942115883827,34.96152115883827,56.28662115883827,36.41922115883827C56.41242115883827,38.75162115883827,54.97642115883827,38.90282115883827,54.242621158838276,38.68682115883827C53.23642115883827,38.68682115883827,52.14632115883827,35.98732115883827,51.72702115883827,34.47562115883827C51.713721158838275,34.47562115883827,51.72702115883827,34.47562115883827,51.56982115883827,34.31372115883827C50.575421158838274,33.28932115883827,44.28492115883827,32.80192115883827,41.50722115883827,31.884121158838273C40.24932115883827,33.56862115883827,40.45902115883827,37.76902115883827,40.72102115883827,39.65862115883827C42.607721158838274,41.08402115883827,43.07942115883827,41.87222115883827,43.07942115883827,42.08822115883827C43.20522115883827,43.12482115883827,42.280021158838274,43.54592115883827,41.82162115883827,43.54592115883827C40.56382115883827,43.54592115883827,39.30602115883827,42.03422115883827,38.83432115883827,41.278321158838274C37.576521158838275,39.72342115883827,37.15722115883827,35.12352115883827,37.10482115883827,33.01792115883827C37.10482115883827,33.01792115883827,34.90362115883827,34.31372115883827,34.90362115883827,34.31372115883827C35.280921158838275,36.51642115883827,34.11742115883827,40.41452115883827,33.488521158838275,42.08822115883827C34.87212115883827,41.82902115883827,36.05662115883827,42.52012115883827,36.475921158838275,42.89802115883827C36.475921158838275,42.89802115883827,39.14872115883827,43.222021158838274,39.14872115883827,43.222021158838274C41.16132115883827,43.351521158838274,41.76922115883827,44.463721158838275,41.82162115883827,45.00362115883827C41.947421158838274,46.42892115883827,40.092121158838275,46.35342115883827,39.14872115883827,46.13742115883827C38.01672115883827,45.74872115883827,35.53252115883827,45.65152115883827,34.43192115883827,45.65152115883827C32.29362115883827,45.65152115883827,30.501221158838273,44.895621158838274,29.87232115883827,44.51772115883827C8.866611158838271,48.145821158838274,6.431971158838272,45.48952115883827,4.702471158838272,44.51772115883827C-1.586648841161728,39.98262115883827,0.5229999588382721,33.44982115883827,2.2001011588382724,30.91232115883827C3.1301911588382723,29.778521158838274,4.230791158838272,30.26442115883827,3.772381158838272,31.236221158838273C3.3950311588382722,31.495421158838273,2.986261158838272,34.15172115883827,2.829051158838272,35.447421158838274C2.577481158838272,39.07552115883827,6.4977011588382725,41.71022115883827,8.489251158838272,42.574121158838274C7.493471158838272,42.19622115883827,6.130831158838272,41.667021158838274,8.646481158838272,42.574121158838274C11.162121158838271,43.48112115883827,16.717521158838274,42.62812115883827,19.18072115883827,42.08822115883827C19.18072115883827,42.08822115883827,19.18072115883827,41.44032115883827,19.18072115883827,41.44032115883827C16.036221158838273,27.057421158838274,27.513821158838272,19.89842115883827,33.64572115883827,18.11672115883827C37.29342115883827,16.55862115883827,37.72042115883827,14.229521158838272,36.475921158838275,13.095721158838272C34.08602115883827,11.540821158838272,34.523421158838275,7.750731158838272,35.51922115883827,6.454981158838272Z" fill="#FFB300" fill-opacity="1"/></g></svg>