<svg xmlns="http://www.w3.org/2000/svg" xmlns:xlink="http://www.w3.org/1999/xlink" fill="none" version="1.1" width="16" height="16" viewBox="0 0 16 16"><clipPath id="master_svg0_0_6257"><rect x="0" y="0" width="16" height="16" rx="0"/></clipPath><g clip-path="url(#master_svg0_0_6257)" style="mix-blend-mode:passthrough"><g><g style="mix-blend-mode:passthrough"><path d="M7.4,4C7.4,4,10.6,4,10.6,4C10.82125,4,11,4.223437,11,4.5C11,4.776563,10.82125,5,10.6,5C10.6,5,7.4,5,7.4,5C7.17875,5,7,4.776563,7,4.5C7,4.223437,7.17875,4,7.4,4Z" fill="#4E5969" fill-opacity="1"/></g><g style="mix-blend-mode:passthrough"><path d="M14,13.1678C14,13.6268,13.6268,14,13.1678,14C13.1678,14,2.832215,14,2.832215,14C2.373154,14,2,13.6268,2,13.1678C2,13.1678,2,8.40268,2,8.40268C2,7.94362,2.373154,7.57047,2.832215,7.57047C2.832215,7.57047,2.845638,7.57047,2.845638,7.57047C2.845638,7.57047,2.845638,4.10738,2.845638,4.10738C2.845638,3.64832,3.2187900000000003,3.27517,3.6778500000000003,3.27517C3.6778500000000003,3.27517,5.42282,3.27517,5.42282,3.27517C5.42282,3.27517,5.42282,2.832215,5.42282,2.832215C5.42282,2.373154,5.7959700000000005,2,6.25503,2C6.25503,2,12.3221,2,12.3221,2C12.7812,2,13.1544,2.373154,13.1544,2.832215C13.1544,2.832215,13.1544,7.57047,13.1544,7.57047C13.1544,7.57047,13.1678,7.57047,13.1678,7.57047C13.6268,7.57047,14,7.94362,14,8.40268C14,8.40268,14,13.1678,14,13.1678ZM6.71141,8.268460000000001C6.71141,8.268460000000001,6.71141,8.85906,6.71141,8.85906C6.71141,8.85906,9.28859,8.85906,9.28859,8.85906C9.28859,8.85906,9.28859,8.268460000000001,9.28859,8.268460000000001C9.28859,7.88322,9.60134,7.57047,9.98658,7.57047C9.98658,7.57047,12.2953,7.57047,12.2953,7.57047C12.2953,7.57047,12.2953,2.85906,12.2953,2.85906C12.2953,2.85906,6.28188,2.85906,6.28188,2.85906C6.28188,2.85906,6.28188,7.62416,6.28188,7.62416C6.53423,7.7302,6.71141,7.97852,6.71141,8.268460000000001ZM5.42282,7.57047C5.42282,7.57047,5.42282,4.1342300000000005,5.42282,4.1342300000000005C5.42282,4.1342300000000005,3.7047,4.1342300000000005,3.7047,4.1342300000000005C3.7047,4.1342300000000005,3.7047,7.57047,3.7047,7.57047C3.7047,7.57047,5.42282,7.57047,5.42282,7.57047ZM10.14765,8.42953C10.14765,8.42953,10.14765,9.02013,10.14765,9.02013C10.14765,9.40537,9.834900000000001,9.718119999999999,9.44966,9.718119999999999C9.44966,9.718119999999999,6.55034,9.718119999999999,6.55034,9.718119999999999C6.1651,9.718119999999999,5.8523499999999995,9.40537,5.8523499999999995,9.02013C5.8523499999999995,9.02013,5.8523499999999995,8.42953,5.8523499999999995,8.42953C5.8523499999999995,8.42953,2.85906,8.42953,2.85906,8.42953C2.85906,8.42953,2.85906,13.1409,2.85906,13.1409C2.85906,13.1409,13.1409,13.1409,13.1409,13.1409C13.1409,13.1409,13.1409,8.42953,13.1409,8.42953C13.1409,8.42953,10.14765,8.42953,10.14765,8.42953Z" fill="#4E5969" fill-opacity="1"/><path d="M14.2,13.1678Q14.2,13.5949,13.8975,13.8975Q13.5949,14.2,13.1678,14.2L2.832215,14.2Q2.405076,14.2,2.102538,13.8975Q1.8,13.5949,1.8,13.1678L1.8,8.40268Q1.8,7.97555,2.102538,7.67301Q2.33675,7.4388,2.645638,7.3859L2.645638,4.10738Q2.645638,3.68024,2.948176,3.37771Q3.2507099999999998,3.07517,3.6778500000000003,3.07517L5.2228200000000005,3.07517L5.2228200000000005,2.832215Q5.2228200000000005,2.405077,5.52536,2.102538Q5.8279,1.8,6.25503,1.8L12.3221,1.8Q12.7493,1.8,13.0518,2.102538Q13.3544,2.405077,13.3544,2.832215L13.3544,7.3859Q13.6632,7.4388,13.8975,7.67301Q14.2,7.97555,14.2,8.40268L14.2,13.1678ZM2.845638,7.57047L2.845638,4.10738C2.845638,3.64832,3.2187900000000003,3.27517,3.6778500000000003,3.27517L5.42282,3.27517L5.42282,2.832215C5.42282,2.373154,5.7959700000000005,2,6.25503,2L12.3221,2C12.7812,2,13.1544,2.373154,13.1544,2.832215L13.1544,7.57047L13.1678,7.57047C13.6268,7.57047,14,7.94362,14,8.40268L14,13.1678C14,13.6268,13.6268,14,13.1678,14L2.832215,14C2.373154,14,2,13.6268,2,13.1678L2,8.40268C2,7.94362,2.373154,7.57047,2.832215,7.57047L2.845638,7.57047ZM12.2953,2.85906L6.28188,2.85906L6.28188,7.62416C6.53423,7.7302,6.71141,7.97852,6.71141,8.268460000000001L6.71141,8.85906L9.28859,8.85906L9.28859,8.268460000000001C9.28859,7.88322,9.60134,7.57047,9.98658,7.57047L12.2953,7.57047L12.2953,2.85906ZM6.91141,8.268460000000001L6.91141,8.65906L9.08859,8.65906L9.08859,8.268460000000001Q9.08859,7.89669,9.351700000000001,7.63358Q9.61481,7.37047,9.98658,7.37047L12.0953,7.37047L12.0953,3.0590599999999997L6.48188,3.0590599999999997L6.48188,7.49956Q6.91141,7.74212,6.91141,8.268460000000001ZM5.42282,4.1342300000000005L3.7047,4.1342300000000005L3.7047,7.57047L5.42282,7.57047L5.42282,4.1342300000000005ZM5.2228200000000005,7.37047L5.2228200000000005,4.33423L3.9047,4.33423L3.9047,7.37047L5.2228200000000005,7.37047ZM13.1409,8.42953L10.14765,8.42953L10.14765,9.02013C10.14765,9.40537,9.834900000000001,9.718119999999999,9.44966,9.718119999999999L6.55034,9.718119999999999C6.1651,9.718119999999999,5.8523499999999995,9.40537,5.8523499999999995,9.02013L5.8523499999999995,8.42953L2.85906,8.42953L2.85906,13.1409L13.1409,13.1409L13.1409,8.42953ZM10.34765,9.02013L10.34765,8.629529999999999L12.9409,8.629529999999999L12.9409,12.9409L3.0590599999999997,12.9409L3.0590599999999997,8.629529999999999L5.65235,8.629529999999999L5.65235,9.02013Q5.65235,9.3919,5.9154599999999995,9.65501Q6.17857,9.91812,6.55034,9.91812L9.449670000000001,9.91812Q9.82143,9.91812,10.08454,9.65501Q10.34765,9.3919,10.34765,9.02013Z" fill-rule="evenodd" fill="#4E5969" fill-opacity="1"/></g><g style="mix-blend-mode:passthrough"><path d="M7.4,6C7.4,6,10.6,6,10.6,6C10.82125,6,11,6.223437,11,6.5C11,6.776563,10.82125,7,10.6,7C10.6,7,7.4,7,7.4,7C7.17875,7,7,6.776563,7,6.5C7,6.223437,7.17875,6,7.4,6Z" fill="#4E5969" fill-opacity="1"/></g></g></g></svg>