<svg xmlns="http://www.w3.org/2000/svg" xmlns:xlink="http://www.w3.org/1999/xlink" fill="none" version="1.1" width="16" height="16" viewBox="0 0 16 16"><g style="mix-blend-mode:passthrough"><g><g style="mix-blend-mode:passthrough"><path d="M12.028825546875,5.991457265625C12.858135546875,5.996837265625,13.528835546875,6.670737265625,13.528835546875,7.501427265625C13.528835546875,7.501427265625,13.528835546875,12.360097265625,13.528835546875,12.360097265625C13.528835546875,13.193997265625,12.852835546875,13.870097265625,12.018815546875,13.870097265625C12.018815546875,13.870097265625,3.981435546875,13.870097265625,3.981435546875,13.870097265625C3.147563546875,13.870097265625,2.471435546875,13.194097265625,2.471435546875,12.360097265625C2.471435546875,12.360097265625,2.471435546875,7.501427265625,2.471435546875,7.501427265625C2.471435546875,6.671027265625,3.141773546875,5.9970972656249995,3.970945546875,5.991457265625C3.970945546875,5.991457265625,3.970945546875,4.627197265625,3.970945546875,4.627197265625C3.970945546875,3.246487265625,5.090235546875,2.127197265625,6.470945546875,2.127197265625C6.470945546875,2.127197265625,9.528825546875,2.127197265625,9.528825546875,2.127197265625C10.909535546875,2.127197265625,12.028825546875,3.246487265625,12.028825546875,4.627197265625C12.028825546875,4.627197265625,12.028825546875,5.991457265625,12.028825546875,5.991457265625ZM5.470945546875,4.627197265625C5.470945546875,4.074907265625,5.918665546874999,3.627197265625,6.470945546875,3.627197265625C6.470945546875,3.627197265625,9.528825546875,3.627197265625,9.528825546875,3.627197265625C10.081105546875001,3.627197265625,10.528825546875,4.074917265625,10.528825546875,4.627197265625C10.528825546875,4.627197265625,10.528825546875,5.991427265625,10.528825546875,5.991427265625C10.528825546875,5.991427265625,5.470945546875,5.991427265625,5.470945546875,5.991427265625C5.470945546875,5.991427265625,5.470945546875,4.627197265625,5.470945546875,4.627197265625ZM3.981435546875,12.370097265625C3.981435546875,12.370097265625,12.018815546875,12.370097265625,12.018815546875,12.370097265625C12.024335546875,12.370097265625,12.028815546875,12.365597265625,12.028815546875,12.360097265625C12.028815546875,12.360097265625,12.028815546875,7.501427265625,12.028815546875,7.501427265625C12.028815546875,7.495897265625,12.024335546875,7.491427265625,12.018815546875,7.491427265625C12.018815546875,7.491427265625,3.981435546875,7.491427265625,3.981435546875,7.491427265625C3.975915546875,7.491427265625,3.971435546875,7.495897265625,3.971435546875,7.501427265625C3.971435546875,7.501427265625,3.971435546875,12.360097265625,3.971435546875,12.360097265625C3.971435546875,12.365597265625,3.975915546875,12.370097265625,3.981435546875,12.370097265625Z" fill-rule="evenodd" fill="#4E5969" fill-opacity="1"/></g></g></g></svg>