<svg xmlns="http://www.w3.org/2000/svg" xmlns:xlink="http://www.w3.org/1999/xlink" fill="none" version="1.1" width="16" height="16" viewBox="0 0 16 16"><clipPath id="master_svg0_0_6326"><rect x="0" y="0" width="16" height="16" rx="0"/></clipPath><g clip-path="url(#master_svg0_0_6326)" style="mix-blend-mode:passthrough"><g><g style="mix-blend-mode:passthrough"><path d="M4.97503125667572,6.237500190734863C4.97503125667572,7.323050190734863,4.09183125667572,8.206250190734863,3.00628125667572,8.206250190734863C1.9207342566757202,8.206250190734863,1.0375312566757202,7.323050190734863,1.0375312566757202,6.237500190734863C1.0375312566757202,5.151953190734863,1.9207342566757202,4.268750190734863,3.00628125667572,4.268750190734863C3.00628125667572,4.268750190734863,3.00628125667572,4.268750190734863,3.00628125667572,4.268750190734863C4.09183125667572,4.268750190734863,4.97503125667572,5.151953190734863,4.97503125667572,6.237500190734863ZM3.00628125667572,5.4687501907348635C2.58239125667572,5.4687501907348635,2.2375312566757204,5.813610190734863,2.2375312566757204,6.237500190734863C2.2375312566757204,6.661390190734863,2.58239125667572,7.006250190734863,3.00628125667572,7.006250190734863C3.4301112566757204,7.006250190734863,3.77503125667572,6.661390190734863,3.77503125667572,6.237500190734863C3.77503125667572,5.813610190734863,3.4301712566757203,5.4687501907348635,3.00628125667572,5.4687501907348635Z" fill="#4E5969" fill-opacity="1"/></g><g style="mix-blend-mode:passthrough"><path d="M2.3312811851501465,1.662500011920929C2.3312811851501465,1.289672011920929,2.6334531851501466,0.987500011920929,3.0062811851501463,0.987500011920929C3.3791111851501467,0.987500011920929,3.6812811851501466,1.289672011920929,3.6812811851501466,1.662500011920929C3.6812811851501466,1.662500011920929,3.6812811851501466,3.106250011920929,3.6812811851501466,3.106250011920929C3.6812811851501466,3.479080011920929,3.3791111851501467,3.781250011920929,3.0062811851501463,3.781250011920929C2.6334531851501466,3.781250011920929,2.3312811851501465,3.479080011920929,2.3312811851501465,3.106250011920929C2.3312811851501465,3.106250011920929,2.3312811851501465,1.662500011920929,2.3312811851501465,1.662500011920929Z" fill="#4E5969" fill-opacity="1"/></g><g style="mix-blend-mode:passthrough"><path d="M3.6812811851501466,9.387499618530274C3.6812811851501466,9.387499618530274,3.6812811851501466,14.374999618530273,3.6812811851501466,14.374999618530273C3.6812811851501466,14.747829618530274,3.3791111851501467,15.049999618530274,3.0062811851501463,15.049999618530274C2.6334531851501466,15.049999618530274,2.3312811851501465,14.747829618530274,2.3312811851501465,14.374999618530273C2.3312811851501465,14.374999618530273,2.3312811851501465,9.387499618530274,2.3312811851501465,9.387499618530274C2.3312811851501465,9.014671618530274,2.6334531851501466,8.712499618530273,3.0062811851501463,8.712499618530273C3.0062811851501463,8.712499618530273,3.0062811851501463,8.712499618530273,3.0062811851501463,8.712499618530273C3.379031185150146,8.712499618530273,3.6812811851501466,9.014671618530274,3.6812811851501466,9.387499618530274Z" fill="#4E5969" fill-opacity="1"/></g><g style="mix-blend-mode:passthrough"><path d="M8.065997709197998,10.019000053405762C6.980452709197998,10.019000053405762,6.097327709197998,9.135800053405761,6.097327709197998,8.050250053405762C6.097327709197998,6.964703053405762,6.980514709197998,6.081500053405762,8.065997709197998,6.081500053405762C9.151627709197998,6.081500053405762,10.034747709197998,6.964625053405761,10.034747709197998,8.050250053405762C10.034747709197998,9.135880053405762,9.151627709197998,10.019000053405762,8.065997709197998,10.019000053405762ZM8.065997709197998,7.281500053405762C7.642187709197998,7.281500053405762,7.297327709197998,7.626360053405762,7.297327709197998,8.050250053405762C7.297327709197998,8.474140053405762,7.642167709197998,8.819000053405762,8.065997709197998,8.819000053405762C8.489967709197998,8.819000053405762,8.834747709197998,8.474140053405762,8.834747709197998,8.050250053405762C8.834747709197998,7.626360053405762,8.489967709197998,7.281500053405762,8.065997709197998,7.281500053405762Z" fill="#4E5969" fill-opacity="1"/></g><g style="mix-blend-mode:passthrough"><path d="M7.391077995300293,1.64375C7.391077995300293,1.270922,7.693249995300293,0.96875,8.066077995300294,0.96875C8.438907995300292,0.96875,8.741077995300293,1.270922,8.741077995300293,1.64375C8.741077995300293,1.64375,8.741077995300293,4.8875,8.741077995300293,4.8875C8.741077995300293,5.26033,8.438827995300294,5.5625,8.066077995300294,5.5625C7.693327995300293,5.5625,7.391077995300293,5.26033,7.391077995300293,4.8875C7.391077995300293,4.8875,7.391077995300293,1.64375,7.391077995300293,1.64375Z" fill="#4E5969" fill-opacity="1"/></g><g style="mix-blend-mode:passthrough"><path d="M8.741077995300293,11.243749381469726C8.741077995300293,11.243749381469726,8.741077995300293,14.356250381469726,8.741077995300293,14.356250381469726C8.741077995300293,14.729080381469727,8.438827995300294,15.031250381469727,8.066077995300294,15.031250381469727C7.693249995300293,15.031250381469727,7.391077995300293,14.729080381469727,7.391077995300293,14.356250381469726C7.391077995300293,14.356250381469726,7.391077995300293,11.243749381469726,7.391077995300293,11.243749381469726C7.391077995300293,10.870921381469726,7.693249995300293,10.568750381469727,8.066077995300294,10.568750381469727C8.066077995300294,10.568750381469727,8.066077995300294,10.568750381469727,8.066077995300294,10.568750381469727C8.438907995300292,10.568750381469727,8.741077995300293,10.870921381469726,8.741077995300293,11.243749381469726Z" fill="#4E5969" fill-opacity="1"/></g><g style="mix-blend-mode:passthrough"><path d="M15.094701766967773,9.766921997070312C15.094701766967773,10.852471997070312,14.211581766967774,11.735591997070312,13.125951766967773,11.735591997070312C12.040326766967773,11.735591997070312,11.157201766967773,10.852471997070312,11.157201766967773,9.766921997070312C11.157201766967773,8.681296997070312,12.040326766967773,7.7981719970703125,13.125951766967773,7.7981719970703125C13.125951766967773,7.7981719970703125,13.125951766967773,7.7981719970703125,13.125951766967773,7.7981719970703125C14.211501766967773,7.7981719970703125,15.094701766967773,8.681296997070312,15.094701766967773,9.766921997070312ZM13.125951766967773,8.998171997070312C12.702061766967773,8.998171997070312,12.357201766967773,9.343031997070312,12.357201766967773,9.766921997070312C12.357201766967773,10.190731997070312,12.702061766967773,10.535591997070313,13.125951766967773,10.535591997070313C13.549841766967774,10.535591997070313,13.894701766967774,10.190751997070313,13.894701766967774,9.766921997070312C13.894701766967774,9.343031997070312,13.549841766967774,8.998171997070312,13.125951766967773,8.998171997070312Z" fill="#4E5969" fill-opacity="1"/></g><g style="mix-blend-mode:passthrough"><path d="M12.450953483581543,1.64375C12.450953483581543,1.270922,12.753124483581542,0.96875,13.125952483581543,0.96875C13.498783483581542,0.96875,13.800953483581543,1.270922,13.800953483581543,1.64375C13.800953483581543,1.64375,13.800953483581543,6.6125,13.800953483581543,6.6125C13.800953483581543,6.98533,13.498783483581542,7.2875,13.125952483581543,7.2875C12.753124483581542,7.2875,12.450953483581543,6.98533,12.450953483581543,6.6125C12.450953483581543,6.6125,12.450953483581543,1.64375,12.450953483581543,1.64375Z" fill="#4E5969" fill-opacity="1"/></g><g style="mix-blend-mode:passthrough"><path d="M13.800953483581543,14.356249809265137C13.800953483581543,14.729079809265137,13.498783483581542,15.031249809265137,13.125952483581543,15.031249809265137C12.753124483581542,15.031249809265137,12.450953483581543,14.729079809265137,12.450953483581543,14.356249809265137C12.450953483581543,14.356249809265137,12.450953483581543,12.968749809265137,12.450953483581543,12.968749809265137C12.450953483581543,12.595921809265137,12.753124483581542,12.293749809265137,13.125952483581543,12.293749809265137C13.498703483581544,12.293749809265137,13.800953483581543,12.595921809265137,13.800953483581543,12.968749809265137C13.800953483581543,12.968749809265137,13.800953483581543,14.356249809265137,13.800953483581543,14.356249809265137Z" fill="#4E5969" fill-opacity="1"/></g></g></g></svg>