<svg xmlns="http://www.w3.org/2000/svg" xmlns:xlink="http://www.w3.org/1999/xlink" fill="none" version="1.1" width="20" height="20" viewBox="0 0 20 20"><clipPath id="master_svg0_0_7567" transform="matrix(-1,0,0,1,40,0)"><rect x="20" y="0" width="20" height="20" rx="0"/></clipPath><g clip-path="url(#master_svg0_0_7567)" style="mix-blend-mode:passthrough"><g transform="matrix(-1,0,0,1,40,0)"><g style="mix-blend-mode:passthrough"><rect x="38.5" y="5.5" width="11" height="12" rx="0.5" transform="matrix(-1,0,0,1,76,0)" fill-opacity="0" stroke-opacity="1" stroke="#9FA7B2" stroke-width="1" fill="none" stroke-dasharray=""/></g><g style="mix-blend-mode:passthrough"><path d="M43.5,14.5L45.25,14.5L46.0019,14.5Q46.2128,14.5,46.3576,14.3577Q46.5,14.2177,46.5,14.0144L46.5,8.5L46.5,2.985645Q46.5,2.778921,46.3604,2.639582Q46.2206,2.5,46.0131,2.5L41,2.5L35.986905,2.5Q35.783158,2.5,35.642648,2.6427199999999997Q35.5,2.787613,35.5,2.998088L35.5,3.75L35.5,5.5L34.5,5.5L34.5,3.75L34.5,2.998088Q34.5,2.377964,34.9300436,1.9411543Q35.364364,1.5,35.986905,1.5L41,1.5L46.0131,1.5Q46.634299999999996,1.5,47.066900000000004,1.931849Q47.5,2.364188,47.5,2.985645L47.5,8.5L47.5,14.0144Q47.5,14.637,47.0585,15.0709Q46.6219,15.5,46.0019,15.5L45.25,15.5L43.5,15.5L43.5,14.5Z" transform="matrix(-1,0,0,1,70,0)" fill="#9FA7B2" fill-opacity="1" fill-rule="evenodd"/></g><g style="mix-blend-mode:passthrough"><rect x="35" y="11" width="6" height="1" rx="0" transform="matrix(-1,0,0,1,70,0)" fill="#C4C4C4" fill-opacity="1"/></g></g></g></svg>