<svg xmlns="http://www.w3.org/2000/svg" xmlns:xlink="http://www.w3.org/1999/xlink" fill="none" version="1.1" width="16" height="16" viewBox="0 0 16 16"><g style="mix-blend-mode:passthrough"><g><g style="mix-blend-mode:passthrough"><path d="M10.99999875,4.666015625C10.99999875,3.009015625,9.65666875,1.666015625,7.99999875,1.666015625C6.3433287499999995,1.666015625,4.99999875,3.009015625,4.99999875,4.666015625C4.99999875,6.323015625,6.3433287499999995,7.666015625,7.99999875,7.666015625C9.65666875,7.666015625,10.99999875,6.323015625,10.99999875,4.666015625ZM8.00260875,6.332355625C7.08260875,6.332355625,6.33593875,5.5860256249999996,6.33593875,4.665685625C6.33593875,3.745355625,7.08260875,2.999025625,8.00260875,2.999025625C8.92260875,2.999025625,9.66926875,3.745355625,9.66926875,4.665685625C9.66926875,5.5860256249999996,8.92260875,6.332355625,8.00260875,6.332355625ZM3.26130175,13.666015625L12.74126875,13.666015625C13.06796875,13.666015625,13.33466875,13.397315625,13.33466875,13.066015625L13.33466875,11.266015625C13.33466875,9.277685625,11.74129875,8.666015625,9.77796875,8.666015625L6.22463875,8.666015625C4.26129875,8.666015625,2.66796875,9.277685625,2.66796875,11.266015625L2.66796875,13.066015625C2.66796875,13.397315625,2.93463575,13.666015625,3.26130175,13.666015625ZM11.99999875,11.265935625L11.99999875,12.332615625L3.99999875,12.332615625L3.99999875,11.265935625C3.99999875,9.999265625,5.00840875,9.999265625,6.22046875,9.999265625L9.77952875,9.999265625C10.99158875,9.999265625,11.99999875,9.999265625,11.99999875,11.265935625Z" fill-rule="evenodd" fill="#4E5969" fill-opacity="1"/></g></g></g></svg>