<svg width="206" height="186" viewBox="0 0 206 186" fill="none" xmlns="http://www.w3.org/2000/svg">
<g clip-path="url(#clip0_0_5280)">
<path d="M134.33 9.44995H33.1299C27.226 9.44995 22.4399 14.236 22.4399 20.14V151.35C22.4399 157.254 27.226 162.04 33.1299 162.04H134.33C140.234 162.04 145.02 157.254 145.02 151.35V20.14C145.02 14.236 140.234 9.44995 134.33 9.44995Z" fill="url(#paint0_linear_0_5280)"/>
<path d="M143.15 0.5H42.4102C36.3793 0.5 31.4902 5.38905 31.4902 11.42V148.83C31.4902 154.861 36.3793 159.75 42.4102 159.75H143.15C149.181 159.75 154.07 154.861 154.07 148.83V11.42C154.07 5.38905 149.181 0.5 143.15 0.5Z" fill="white" stroke="#EBEBEB" stroke-miterlimit="10"/>
<path d="M125.77 115.59V155.05H133.73V115.59H125.77Z" fill="url(#paint1_linear_0_5280)"/>
<path d="M140.76 100.38V155.05H148.72V100.38H140.76Z" fill="url(#paint2_linear_0_5280)"/>
<path d="M156.26 123.55V155.05H164.22V123.55H156.26Z" fill="url(#paint3_linear_0_5280)"/>
<path d="M173.26 110.05V155.05H181.22V110.05H173.26Z" fill="url(#paint4_linear_0_5280)"/>
<path d="M160.13 112.48L144.65 87.34L129.07 102.66L128.37 101.94L144.84 85.75L160.36 110.95L183.88 89.45L184.54 90.21L160.13 112.48Z" fill="#E2E2E2"/>
<path d="M152.31 43.1299L154.09 49.7999L160.69 51.5999L154.09 53.3999L152.31 60.0699L150.54 53.3999L143.94 51.5999L150.54 49.7999L152.31 43.1299Z" fill="#F7F7F7"/>
<path d="M174.1 13.46L176.94 24.15L187.5 27.02L176.94 29.9L174.1 40.58L171.25 29.9L160.69 27.02L171.25 24.15L174.1 13.46Z" fill="#F7F7F7"/>
<path d="M163.74 163.2H2C0.89543 163.2 0 164.095 0 165.2V165.21C0 166.315 0.89543 167.21 2 167.21H163.74C164.845 167.21 165.74 166.315 165.74 165.21V165.2C165.74 164.095 164.845 163.2 163.74 163.2Z" fill="url(#paint5_linear_0_5280)"/>
<path d="M205.44 180.27V180.24C205.44 177.479 203.201 175.24 200.44 175.24H44.7C41.9385 175.24 39.7 177.479 39.7 180.24V180.27C39.7 183.031 41.9385 185.27 44.7 185.27H200.44C203.201 185.27 205.44 183.031 205.44 180.27Z" fill="url(#paint6_linear_0_5280)"/>
<path d="M105.7 173.23C105.976 173.23 106.2 173.006 106.2 172.73C106.2 172.454 105.976 172.23 105.7 172.23H26.3102C26.034 172.23 25.8102 172.454 25.8102 172.73C25.8102 173.006 26.034 173.23 26.3102 173.23H105.7Z" fill="url(#paint7_linear_0_5280)"/>
<path d="M202.96 170.22C203.236 170.22 203.46 169.996 203.46 169.72C203.46 169.444 203.236 169.22 202.96 169.22H123.57C123.294 169.22 123.07 169.444 123.07 169.72C123.07 169.996 123.294 170.22 123.57 170.22H202.96Z" fill="url(#paint8_linear_0_5280)"/>
<path d="M113.56 18.96H43.23V29.29H113.56V18.96Z" fill="url(#paint9_linear_0_5280)"/>
<path d="M113.56 40.6299H43.23V50.9599H113.56V40.6299Z" fill="url(#paint10_linear_0_5280)"/>
<path d="M104.76 62.29H43.23V72.62H104.76V62.29Z" fill="url(#paint11_linear_0_5280)"/>
<path opacity="0.6" d="M52.084 115.984C53.9467 115.984 55.3913 116.365 56.418 117.128C57.518 117.949 58.1487 119.218 58.31 120.934H55.758C55.538 119.966 55.1347 119.269 54.548 118.844C53.9907 118.419 53.1253 118.206 51.952 118.206C50.9547 118.206 50.1993 118.345 49.686 118.624C49.0407 118.947 48.718 119.489 48.718 120.252C48.718 120.941 49.0847 121.477 49.818 121.858C50.17 122.049 51.0647 122.371 52.502 122.826C54.57 123.457 55.9413 123.97 56.616 124.366C57.98 125.173 58.662 126.302 58.662 127.754C58.662 129.162 58.112 130.277 57.012 131.098C55.8973 131.905 54.3427 132.308 52.348 132.308C50.412 132.308 48.9013 131.934 47.816 131.186C46.4813 130.262 45.7627 128.803 45.66 126.808H48.212C48.388 128.011 48.8133 128.861 49.488 129.36C50.1187 129.815 51.072 130.042 52.348 130.042C53.492 130.042 54.4013 129.851 55.076 129.47C55.7507 129.059 56.088 128.539 56.088 127.908C56.088 127.072 55.5967 126.412 54.614 125.928C54.262 125.752 53.2427 125.407 51.556 124.894C49.6053 124.278 48.4027 123.838 47.948 123.574C46.7453 122.855 46.144 121.799 46.144 120.406C46.144 118.998 46.7307 117.905 47.904 117.128C48.9893 116.365 50.3827 115.984 52.084 115.984ZM67.8441 115.984C70.2494 115.984 72.1414 116.761 73.5201 118.316C74.8401 119.783 75.5001 121.733 75.5001 124.168C75.5001 126.515 74.8767 128.421 73.6301 129.888C74.3487 130.812 74.9281 131.604 75.3681 132.264L73.6961 133.716C72.9774 132.675 72.3981 131.868 71.9581 131.296C70.7847 131.971 69.4134 132.308 67.8441 132.308C65.4387 132.308 63.5467 131.531 62.1681 129.976C60.8627 128.495 60.2101 126.559 60.2101 124.168C60.2101 121.763 60.8627 119.819 62.1681 118.338C63.5174 116.769 65.4094 115.984 67.8441 115.984ZM67.8441 118.25C66.2307 118.25 64.9694 118.8 64.0601 119.9C63.2094 120.941 62.7841 122.364 62.7841 124.168C62.7841 125.957 63.2094 127.373 64.0601 128.414C64.9401 129.499 66.2014 130.042 67.8441 130.042C68.8561 130.042 69.7434 129.829 70.5061 129.404C69.7141 128.436 68.9587 127.571 68.2401 126.808L69.7361 125.356C70.5134 126.177 71.2761 127.028 72.0241 127.908C72.6107 126.911 72.9041 125.664 72.9041 124.168C72.9041 122.335 72.4714 120.883 71.6061 119.812C70.7407 118.771 69.4867 118.25 67.8441 118.25ZM77.9287 116.292H80.4807V129.8H88.9727V132H77.9287V116.292Z" fill="#CDCDCD"/>
</g>
<defs>
<linearGradient id="paint0_linear_0_5280" x1="145.02" y1="85.7399" x2="22.4399" y2="85.7399" gradientUnits="userSpaceOnUse">
<stop stop-color="#CCCCCC"/>
<stop offset="0.99" stop-color="#EBEBEB"/>
</linearGradient>
<linearGradient id="paint1_linear_0_5280" x1="125.76" y1="135.31" x2="133.72" y2="135.31" gradientUnits="userSpaceOnUse">
<stop stop-color="#E2E2E2"/>
<stop offset="0.99" stop-color="#F7F7F7"/>
</linearGradient>
<linearGradient id="paint2_linear_0_5280" x1="140.76" y1="127.72" x2="148.72" y2="127.72" gradientUnits="userSpaceOnUse">
<stop stop-color="#E2E2E2"/>
<stop offset="0.99" stop-color="#F7F7F7"/>
</linearGradient>
<linearGradient id="paint3_linear_0_5280" x1="156.26" y1="139.3" x2="164.22" y2="139.3" gradientUnits="userSpaceOnUse">
<stop stop-color="#E2E2E2"/>
<stop offset="0.99" stop-color="#F7F7F7"/>
</linearGradient>
<linearGradient id="paint4_linear_0_5280" x1="173.26" y1="132.55" x2="181.22" y2="132.55" gradientUnits="userSpaceOnUse">
<stop stop-color="#E2E2E2"/>
<stop offset="0.99" stop-color="#F7F7F7"/>
</linearGradient>
<linearGradient id="paint5_linear_0_5280" x1="0" y1="165.21" x2="165.74" y2="165.21" gradientUnits="userSpaceOnUse">
<stop stop-color="#EBEBEB"/>
<stop offset="0.99" stop-color="#F7F7F7"/>
</linearGradient>
<linearGradient id="paint6_linear_0_5280" x1="39.7" y1="180.25" x2="205.44" y2="180.25" gradientUnits="userSpaceOnUse">
<stop stop-color="#EBEBEB"/>
<stop offset="0.99" stop-color="#F7F7F7"/>
</linearGradient>
<linearGradient id="paint7_linear_0_5280" x1="66.0002" y1="172.23" x2="66.0002" y2="173.23" gradientUnits="userSpaceOnUse">
<stop stop-color="#EBEBEB"/>
<stop offset="0.99" stop-color="#F7F7F7"/>
</linearGradient>
<linearGradient id="paint8_linear_0_5280" x1="163.26" y1="169.22" x2="163.26" y2="170.22" gradientUnits="userSpaceOnUse">
<stop stop-color="#EBEBEB"/>
<stop offset="0.99" stop-color="#F7F7F7"/>
</linearGradient>
<linearGradient id="paint9_linear_0_5280" x1="43.23" y1="24.13" x2="113.56" y2="24.13" gradientUnits="userSpaceOnUse">
<stop stop-color="#EBEBEB"/>
<stop offset="0.99" stop-color="#F7F7F7"/>
</linearGradient>
<linearGradient id="paint10_linear_0_5280" x1="43.23" y1="45.7899" x2="113.56" y2="45.7899" gradientUnits="userSpaceOnUse">
<stop stop-color="#EBEBEB"/>
<stop offset="0.99" stop-color="#F7F7F7"/>
</linearGradient>
<linearGradient id="paint11_linear_0_5280" x1="43.23" y1="67.46" x2="104.75" y2="67.46" gradientUnits="userSpaceOnUse">
<stop stop-color="#EBEBEB"/>
<stop offset="0.99" stop-color="#F7F7F7"/>
</linearGradient>
<clipPath id="clip0_0_5280">
<rect width="205.44" height="185.26" fill="white"/>
</clipPath>
</defs>
</svg>
