<svg width="40" height="40" viewBox="0 0 40 40" fill="none" xmlns="http://www.w3.org/2000/svg">
<path fill-rule="evenodd" clip-rule="evenodd" d="M20 3.3335C29.2048 3.3335 36.6667 10.7954 36.6667 20.0002C36.6667 29.2049 29.2048 36.6668 20 36.6668C10.7953 36.6668 3.33337 29.2049 3.33337 20.0002C3.33337 10.7954 10.7953 3.3335 20 3.3335ZM20 8.88905C13.8635 8.88905 8.88893 13.8637 8.88893 20.0002C8.88893 26.1367 13.8635 31.1113 20 31.1113C26.1365 31.1113 31.1112 26.1367 31.1112 20.0002C31.1112 13.8637 26.1365 8.88905 20 8.88905Z" fill="url(#paint0_angular_808_15306)"/>
<path d="M33.9169 22.7495C35.4357 22.7495 36.6669 21.5183 36.6669 19.9995C36.6669 18.4807 35.4357 17.2495 33.9169 17.2495C32.3981 17.2495 31.1669 18.4807 31.1669 19.9995C31.1669 21.5183 32.3981 22.7495 33.9169 22.7495Z" fill="white"/>
<defs>
<radialGradient id="paint0_angular_808_15306" cx="0" cy="0" r="1" gradientUnits="userSpaceOnUse" gradientTransform="translate(23.9999 20) rotate(-22.2013) scale(13.232 13.2313)">
<stop offset="0.916667" stop-color="white" stop-opacity="0"/>
<stop offset="0.958333" stop-color="white"/>
</radialGradient>
</defs>
</svg>
