<svg width="16" height="16" viewBox="0 0 16 16" fill="none" xmlns="http://www.w3.org/2000/svg">
<path d="M7.4 5H10.6C10.8212 5 11 4.77656 11 4.5C11 4.22344 10.8212 4 10.6 4H7.4C7.17875 4 7 4.22344 7 4.5C7 4.77656 7.17875 5 7.4 5Z" fill="#4E5969"/>
<path d="M13.2544 7.47445V2.83221C13.2544 2.31793 12.8364 1.9 12.3221 1.9H6.25503C5.74074 1.9 5.32282 2.31793 5.32282 2.83221V3.17517H3.67785C3.16356 3.17517 2.74564 3.59309 2.74564 4.10738V7.47445C2.27183 7.51822 1.9 7.91758 1.9 8.40268V13.1678C1.9 13.6821 2.31793 14.1 2.83221 14.1H13.1678C13.6821 14.1 14.1 13.6821 14.1 13.1678V8.40268C14.1 7.91758 13.7282 7.51822 13.2544 7.47445ZM6.38188 2.95906H12.1953V7.47047H9.98658C9.54611 7.47047 9.18859 7.82799 9.18859 8.26846V8.75906H6.81141V8.26846C6.81141 7.96067 6.63689 7.69435 6.38188 7.56082V2.95906ZM3.8047 4.23423H5.32282V7.47047H3.8047V4.23423ZM13.0409 13.0409H2.95906V8.52953H5.75235V9.02013C5.75235 9.4606 6.10987 9.81812 6.55034 9.81812H9.44966C9.89013 9.81812 10.2477 9.4606 10.2477 9.02013V8.52953H13.0409V13.0409Z" fill="#4E5969" stroke="#4E5969" stroke-width="0.2"/>
<path d="M7.4 7H10.6C10.8212 7 11 6.77656 11 6.5C11 6.22344 10.8212 6 10.6 6H7.4C7.17875 6 7 6.22344 7 6.5C7 6.77656 7.17875 7 7.4 7Z" fill="#4E5969"/>
</svg>
