<svg width="16" height="16" viewBox="0 0 16 16" fill="none" xmlns="http://www.w3.org/2000/svg">
<path d="M3.00635 4.2688C1.9208 4.2688 1.0376 5.152 1.0376 6.23755C1.0376 7.3231 1.9208 8.2063 3.00635 8.2063C4.09189 8.2063 4.9751 7.3231 4.9751 6.23755C4.9751 5.152 4.09189 4.2688 3.00635 4.2688ZM3.00635 7.0063C2.58246 7.0063 2.2376 6.66144 2.2376 6.23755C2.2376 5.81366 2.58246 5.4688 3.00635 5.4688C3.43024 5.4688 3.7751 5.81366 3.7751 6.23755C3.7751 6.66144 3.43018 7.0063 3.00635 7.0063Z" fill="#4E5969"/>
<path d="M3.00605 3.7813C3.37888 3.7813 3.68105 3.47913 3.68105 3.1063V1.66255C3.68105 1.28972 3.37888 0.987549 3.00605 0.987549C2.63323 0.987549 2.33105 1.28972 2.33105 1.66255V3.1063C2.33105 3.47913 2.63323 3.7813 3.00605 3.7813Z" fill="#4E5969"/>
<path d="M3.00605 8.7124C2.63323 8.7124 2.33105 9.01457 2.33105 9.3874V14.3749C2.33105 14.7477 2.63323 15.0499 3.00605 15.0499C3.37888 15.0499 3.68105 14.7477 3.68105 14.3749V9.3874C3.68105 9.01457 3.3788 8.7124 3.00605 8.7124Z" fill="#4E5969"/>
<path d="M8.06584 6.08154C6.98036 6.08154 6.09717 6.96475 6.09717 8.05029C6.09717 9.13584 6.98029 10.019 8.06584 10.019C9.15146 10.019 10.0346 9.13592 10.0346 8.05029C10.0346 6.96467 9.15146 6.08154 8.06584 6.08154ZM8.06584 8.81904C7.64201 8.81904 7.29717 8.47418 7.29717 8.05029C7.29717 7.6264 7.64203 7.28154 8.06584 7.28154C8.48981 7.28154 8.83459 7.6264 8.83459 8.05029C8.83459 8.47418 8.48981 8.81904 8.06584 8.81904Z" fill="#4E5969"/>
<path d="M8.06611 5.5625C8.43886 5.5625 8.74111 5.26033 8.74111 4.8875V1.64375C8.74111 1.27092 8.43894 0.96875 8.06611 0.96875C7.69329 0.96875 7.39111 1.27092 7.39111 1.64375V4.8875C7.39111 5.26033 7.69336 5.5625 8.06611 5.5625Z" fill="#4E5969"/>
<path d="M8.06611 10.5688C7.69329 10.5688 7.39111 10.871 7.39111 11.2438V14.3563C7.39111 14.7292 7.69329 15.0313 8.06611 15.0313C8.43886 15.0313 8.74111 14.7292 8.74111 14.3563V11.2438C8.74111 10.871 8.43894 10.5688 8.06611 10.5688Z" fill="#4E5969"/>
<path d="M13.126 7.7981C12.0404 7.7981 11.1572 8.68122 11.1572 9.76685C11.1572 10.8524 12.0404 11.7355 13.126 11.7355C14.2116 11.7355 15.0947 10.8524 15.0947 9.76685C15.0947 8.68122 14.2115 7.7981 13.126 7.7981ZM13.126 10.5355C12.7021 10.5355 12.3572 10.1907 12.3572 9.76685C12.3572 9.34296 12.7021 8.9981 13.126 8.9981C13.5499 8.9981 13.8947 9.34296 13.8947 9.76685C13.8947 10.1907 13.5499 10.5355 13.126 10.5355Z" fill="#4E5969"/>
<path d="M13.1262 7.2875C13.499 7.2875 13.8012 6.98533 13.8012 6.6125V1.64375C13.8012 1.27092 13.499 0.96875 13.1262 0.96875C12.7533 0.96875 12.4512 1.27092 12.4512 1.64375V6.6125C12.4512 6.98533 12.7533 7.2875 13.1262 7.2875Z" fill="#4E5969"/>
<path d="M13.1262 12.2937C12.7533 12.2937 12.4512 12.5959 12.4512 12.9687V14.3562C12.4512 14.729 12.7533 15.0312 13.1262 15.0312C13.499 15.0312 13.8012 14.729 13.8012 14.3562V12.9687C13.8012 12.5959 13.4989 12.2937 13.1262 12.2937Z" fill="#4E5969"/>
</svg>
