<svg width="66" height="63" viewBox="0 0 66 63" fill="none" xmlns="http://www.w3.org/2000/svg">
<path d="M4.06787 25.1631L18.4986 15.7558C18.7504 15.5916 19.047 15.5039 19.3506 15.5039H45.8678C46.1736 15.5039 46.4724 15.5929 46.7253 15.7593L61.0182 25.1631V46.0195C61.0182 46.835 60.3352 47.4961 59.4928 47.4961H5.59333C4.75083 47.4961 4.06787 46.835 4.06787 46.0195V25.1631Z" fill="#9F9F9F" fill-opacity="0.5"/>
<path d="M4.06787 25.1631H22.0642C22.9067 25.1631 23.5896 25.8242 23.5896 26.6396V29.3885C23.5896 30.2039 24.2726 30.8651 25.1151 30.8651H39.9334C40.7759 30.8651 41.4588 30.2039 41.4588 29.3885V26.6396C41.4588 25.8242 42.1418 25.1631 42.9843 25.1631H61.0182V47.0039C61.0182 47.1344 60.9646 47.2596 60.8693 47.3519C60.7739 47.4442 60.6446 47.4961 60.5097 47.4961H4.57636C4.4415 47.4961 4.31216 47.4442 4.2168 47.3519C4.12144 47.2596 4.06787 47.1344 4.06787 47.0039V25.1631Z" fill="white" fill-opacity="0.4"/>
</svg>
