<svg width="48" height="48" viewBox="0 0 48 48" fill="none" xmlns="http://www.w3.org/2000/svg">
<path d="M16.0869 39.0278C13.5525 27.4355 22.8033 21.6654 27.7455 20.2294C30.6855 18.9736 31.0297 17.0963 30.0266 16.1825C28.1004 14.9293 28.4529 11.8745 29.2555 10.8302L27.7455 7.56654L31.4205 9.00253C33.0426 7.95817 34.7153 8.13223 35.349 8.34981L37.5033 6V9.00253C41.0408 10.5691 39.5201 16.1825 37.8727 17.2269C38.1262 18.9239 37.8834 23.493 37.5033 25.8428C37.5033 27.4094 38.5171 28.9759 38.7705 28.9759C38.9733 28.9759 41.2205 29.9332 42.3188 30.4119C44.9546 31.2474 45.867 33.806 45.9938 34.981C46.0951 36.8608 44.9377 36.9826 44.3463 36.8086C43.5353 36.8086 42.6567 34.6328 42.3188 33.4144C42.3081 33.4144 42.3188 33.4144 42.192 33.2839C41.3906 32.4582 36.3205 32.0655 34.0817 31.3257C33.0679 32.6834 33.2369 36.0688 33.4481 37.5918C34.9688 38.7406 35.349 39.376 35.349 39.55C35.4503 40.3855 34.7046 40.7249 34.3352 40.7249C33.3214 40.7249 32.3076 39.5065 31.9274 38.8973C30.9136 37.6441 30.5757 33.9366 30.5335 32.2395L28.7593 33.2839C29.0635 35.0593 28.1257 38.2011 27.6188 39.55C28.734 39.3411 29.6886 39.8981 30.0266 40.2027L32.1809 40.4638C33.8029 40.5683 34.2929 41.4647 34.3352 41.8998C34.4366 43.0486 32.9412 42.9877 32.1809 42.8136C31.2685 42.5003 29.2662 42.422 28.3792 42.422C26.6557 42.422 25.2111 41.8128 24.7042 41.5082C7.7739 44.4324 5.81161 42.2915 4.41767 41.5082C-0.651281 37.8529 1.04907 32.5876 2.40079 30.5424C3.15043 29.6286 4.03749 30.0202 3.66802 30.8035C3.36389 31.0124 3.03442 33.1533 2.90771 34.1977C2.721 36.8904 5.38552 38.9043 7.06186 39.7498C7.20888 39.8022 7.38581 39.8657 7.59648 39.9417C9.62405 40.6727 14.1016 39.9852 16.0869 39.55V39.0278Z" fill="#FFB300"/>
<path d="M46.3728 35.2321C46.8498 34.7969 46.7722 33.9339 45.9988 33.9956C45.4356 32.735 44.277 32.8196 44 33C43.3116 33.4777 43.3553 34.1201 43.2356 34.334C42.1276 34.811 42.3955 35.8222 43.1138 35.78C42.8834 36.9642 44.0957 37.2559 44.4302 36.8408C44.8648 37.7125 46.0813 37.4861 45.7908 36.3464C46.8219 36.3389 46.6768 35.5081 46.3728 35.2321Z" fill="#E24A4A"/>
</svg>
