<svg width="50" height="50" viewBox="0 0 50 50" fill="none" xmlns="http://www.w3.org/2000/svg">
<path d="M33.8775 19.5574H16.335C14.78 19.5574 13.52 18.2974 13.52 16.7424V5.50488H36.69V16.7449C36.6925 18.2999 35.4325 19.5574 33.8775 19.5574Z" fill="#FFB300"/>
<path d="M39.9252 4.00488H10.0952C6.51021 4.00488 3.59521 6.91988 3.59521 10.5049V39.4424C3.59521 43.0274 6.51021 45.9424 10.0952 45.9424H39.9252C43.5102 45.9424 46.4252 43.0274 46.4252 39.4424V10.5049C46.4252 6.91988 43.5102 4.00488 39.9252 4.00488ZM35.1927 7.00488V16.7449C35.1927 17.4699 34.6027 18.0599 33.8777 18.0599H16.3352C15.6102 18.0599 15.0202 17.4699 15.0202 16.7449V7.00488H35.1927ZM43.4252 39.4424C43.4252 41.3724 41.8552 42.9424 39.9252 42.9424H10.0952C8.16521 42.9424 6.59521 41.3724 6.59521 39.4424V10.5049C6.59521 8.57488 8.16521 7.00488 10.0952 7.00488H12.0202V16.7449C12.0202 19.1224 13.9552 21.0599 16.3352 21.0599H33.8777C36.2552 21.0599 38.1927 19.1249 38.1927 16.7449V7.00488H39.9252C41.8552 7.00488 43.4252 8.57488 43.4252 10.5049V39.4424Z" fill="#424242"/>
<path d="M31.6499 15.76C32.4774 15.76 33.1499 15.0875 33.1499 14.26V10.7825C33.1499 9.95497 32.4774 9.28247 31.6499 9.28247C30.8224 9.28247 30.1499 9.95497 30.1499 10.7825V14.2625C30.1499 14.4593 30.1887 14.6543 30.2641 14.8361C30.3395 15.018 30.4501 15.1832 30.5894 15.3222C30.7287 15.4613 30.8941 15.5716 31.0761 15.6467C31.258 15.7218 31.453 15.7603 31.6499 15.76Z" fill="#474A54"/>
<mask id="path-4-inside-1_678_14644" fill="white">
<rect x="13" y="30" width="23" height="16" rx="2"/>
</mask>
<rect x="13" y="30" width="23" height="16" rx="2" fill="#FFD980" stroke="#424242" stroke-width="6" mask="url(#path-4-inside-1_678_14644)"/>
</svg>
