<svg width="50" height="50" viewBox="0 0 50 50" fill="none" xmlns="http://www.w3.org/2000/svg">
<ellipse cx="18" cy="8" rx="15" ry="6" fill="#FFD980"/>
<path d="M35.0856 7.35902C34.5696 5.46011 32.6814 3.78948 29.6408 2.57782C26.4712 1.31446 22.2884 0.618652 17.8635 0.618652C13.4387 0.618652 9.25587 1.31446 6.08604 2.57782C2.4819 4.01419 0.49707 6.09507 0.49707 8.43705V41.5634C0.49707 43.9052 2.48209 45.9861 6.08624 47.4224C9.25607 48.6858 13.4389 49.3816 17.8637 49.3816C19.0523 49.3816 20.2377 49.3309 21.3877 49.2311L21.1296 46.2595C20.0651 46.352 18.9664 46.3987 17.8637 46.3987C9.08346 46.3987 3.48017 43.5351 3.48017 41.5636L3.47998 35.0565C4.24857 35.5783 5.16432 36.0548 6.21987 36.4756C9.38971 37.7389 13.5723 38.4347 17.9974 38.4347V35.4518C9.2171 35.4518 3.61401 32.588 3.61401 30.6163H3.47998V24.4831C4.22332 24.9733 5.0989 25.4221 6.09996 25.821C9.26979 27.0844 13.4526 27.7802 17.8777 27.7802V24.7973C9.09738 24.7973 3.49409 21.9335 3.49409 19.9618H3.47998V12.9679C4.22033 13.4545 5.09114 13.9003 6.08604 14.2969C9.25587 15.5602 13.4385 16.256 17.8635 16.256C22.2886 16.256 26.4712 15.5602 29.641 14.2969C30.6359 13.9003 31.5068 13.4545 32.2471 12.9679V15.9985H35.23V7.35902H35.0856ZM17.8635 13.2725C9.08326 13.2725 3.47998 10.4087 3.47998 8.43705C3.47998 6.46534 9.08326 3.60156 17.8635 3.60156C26.6438 3.60156 32.2471 6.46534 32.2471 8.43705C32.2471 10.4087 26.6438 13.2725 17.8635 13.2725Z" fill="#424242"/>
<path d="M47.7114 35.9917C47.153 35.6695 46.8201 35.2919 46.7055 35.1171V34.2652C46.8203 34.09 47.1536 33.7128 47.7116 33.3906C48.5665 32.8974 49.168 32.0879 49.4061 31.1119C49.6377 30.1609 49.4934 29.1658 48.9994 28.3105L47.9238 26.447C47.2464 25.2741 45.9978 24.5453 44.6658 24.5453C44.038 24.5453 43.4206 24.7101 42.8805 25.022C42.3859 25.3075 41.9064 25.4358 41.6364 25.4652C41.2244 25.0345 40.6272 24.1092 40.6272 23.7208C40.6272 21.7056 38.9422 20.0662 36.8713 20.0662H34.7202C32.6491 20.0662 30.9642 21.7056 30.9642 23.7208C30.9642 24.2919 30.8317 24.779 30.7255 25.02C30.3435 25.1058 29.9533 25.1501 29.5618 25.152C29.0676 25.152 28.7946 25.0705 28.7109 25.0224C28.1678 24.7098 27.5521 24.5455 26.9255 24.5459C25.5933 24.5459 24.3449 25.2745 23.6676 26.4478L22.5923 28.3105C22.0982 29.1662 21.9538 30.1611 22.1855 31.1123C22.4233 32.0885 23.0249 32.8978 23.88 33.3914C24.4382 33.7134 24.7712 34.091 24.8858 34.2658V35.1179C24.7712 35.2931 24.4382 35.6705 23.88 35.9925C23.0251 36.4857 22.4233 37.2952 22.1855 38.2714C21.9538 39.2222 22.0984 40.2171 22.5921 41.073L23.6678 42.9361C24.3453 44.109 25.5937 44.8378 26.9259 44.8378C27.5535 44.8378 28.1712 44.6727 28.7111 44.3609C29.2058 44.0754 29.6851 43.9473 29.9551 43.9177C30.3668 44.3476 30.9642 45.2733 30.9642 45.6623C30.9642 47.6775 32.6491 49.3169 34.7202 49.3169H36.8713C38.9422 49.3169 40.6272 47.6775 40.6272 45.6623C40.6272 45.0911 40.7596 44.6039 40.8656 44.3631C41.2476 44.2773 41.6378 44.233 42.0293 44.2311C42.5237 44.2311 42.7969 44.3126 42.8803 44.3607C43.4234 44.6734 44.0391 44.8379 44.6658 44.8376C45.9978 44.8376 47.2462 44.1088 47.9238 42.9357L48.9994 41.0724C50.0343 39.2789 49.4568 36.9997 47.7114 35.9917ZM46.2201 38.5751C46.5359 38.7572 46.6254 39.2182 46.416 39.5813L45.3406 41.444C45.1658 41.7469 44.8774 41.8547 44.6658 41.8547C44.5626 41.8555 44.461 41.8288 44.3715 41.7773C43.7632 41.426 42.9753 41.248 42.0293 41.248C41.0651 41.248 39.989 41.4399 39.4135 41.7145C38.7563 42.0273 37.6445 43.2111 37.6445 45.6623C37.6445 46.0264 37.2905 46.334 36.8715 46.334H34.7204C34.3014 46.334 33.9473 46.0264 33.9473 45.6623C33.9473 43.8023 32.2098 41.8133 31.519 41.3355C31.1284 41.065 30.6394 40.9278 30.0657 40.9278C29.2054 40.9278 28.1415 41.2454 27.2196 41.7773C27.1304 41.8289 27.0289 41.8556 26.9259 41.8547C26.6598 41.8547 26.3947 41.6934 26.2508 41.4442L25.1755 39.5815C25.067 39.3936 25.0343 39.179 25.0835 38.977C25.1083 38.8748 25.1787 38.6866 25.3706 38.5759C27.1717 37.5364 27.911 36.1394 27.8685 35.1589V34.2236C27.9112 33.2432 27.1715 31.8465 25.3708 30.8074C25.1789 30.6964 25.1085 30.5081 25.0835 30.4055C25.0343 30.2037 25.0669 29.9893 25.1753 29.8014L26.2508 27.9384C26.4256 27.636 26.7139 27.5282 26.9255 27.5282C27.0321 27.5282 27.1311 27.5542 27.2198 27.6054C27.8281 27.9567 28.616 28.1345 29.5618 28.1345C30.5261 28.1345 31.6019 27.9428 32.178 27.668C32.835 27.355 33.9469 26.171 33.9469 23.7204C33.9469 23.3563 34.3008 23.0487 34.72 23.0487H36.8711C37.2899 23.0487 37.6441 23.3563 37.6441 23.7204C37.6441 25.5782 39.3811 27.5684 40.0735 28.0478C40.4639 28.3177 40.9525 28.4547 41.5258 28.4547C42.3861 28.4547 43.45 28.1369 44.3717 27.6052C44.4611 27.5536 44.5627 27.5269 44.6658 27.5278C44.9317 27.5278 45.1968 27.6893 45.3408 27.938L46.4162 29.8014C46.5246 29.9889 46.5572 30.2035 46.5081 30.4053C46.483 30.5077 46.4126 30.696 46.2207 30.807C44.4194 31.8466 43.6801 33.2432 43.7228 34.2236V35.1589C43.6801 36.1394 44.4198 37.5364 46.2201 38.5751Z" fill="#FFB300"/>
<circle cx="36" cy="35" r="3.5" stroke="#424242" stroke-width="3"/>
</svg>
