<svg width="50" height="50" viewBox="0 0 50 50" fill="none" xmlns="http://www.w3.org/2000/svg">
<g clip-path="url(#clip0_678_14497)">
<path opacity="0.4" d="M4.09814 27.3953H42.2718V30.2396H4.09814V27.3953Z" fill="#FFD980"/>
<path d="M24.7568 40.2696C24.7568 40.5055 24.8033 40.7391 24.8936 40.957C24.9839 41.175 25.1162 41.373 25.283 41.5398C25.4498 41.7066 25.6478 41.8389 25.8658 41.9292C26.0837 42.0195 26.3173 42.066 26.5532 42.066C26.7892 42.066 27.0227 42.0195 27.2407 41.9292C27.4586 41.8389 27.6567 41.7066 27.8235 41.5398C27.9903 41.373 28.1226 41.175 28.2129 40.957C28.3032 40.7391 28.3497 40.5055 28.3497 40.2696C28.3497 40.0336 28.3032 39.8 28.2129 39.5821C28.1226 39.3641 27.9903 39.1661 27.8235 38.9993C27.6567 38.8325 27.4586 38.7002 27.2407 38.6099C27.0227 38.5196 26.7892 38.4731 26.5532 38.4731C26.3173 38.4731 26.0837 38.5196 25.8658 38.6099C25.6478 38.7002 25.4498 38.8325 25.283 38.9993C25.1162 39.1661 24.9839 39.3641 24.8936 39.5821C24.8033 39.8 24.7568 40.0336 24.7568 40.2696Z" fill="#2488FF"/>
<path d="M30.2959 40.2696C30.2959 40.746 30.4852 41.2029 30.8221 41.5398C31.1589 41.8767 31.6159 42.066 32.0923 42.066C32.5687 42.066 33.0257 41.8767 33.3626 41.5398C33.6994 41.2029 33.8887 40.746 33.8887 40.2696C33.8887 39.7931 33.6994 39.3362 33.3626 38.9993C33.0257 38.6624 32.5687 38.4731 32.0923 38.4731C31.6159 38.4731 31.1589 38.6624 30.8221 38.9993C30.4852 39.3362 30.2959 39.7931 30.2959 40.2696Z" fill="#2488FF"/>
<path d="M35.8345 40.2696C35.8345 40.746 36.0237 41.2029 36.3606 41.5398C36.6975 41.8767 37.1544 42.066 37.6309 42.066C38.1073 42.066 38.5642 41.8767 38.9011 41.5398C39.238 41.2029 39.4273 40.746 39.4273 40.2696C39.4273 39.7931 39.238 39.3362 38.9011 38.9993C38.5642 38.6624 38.1073 38.4731 37.6309 38.4731C37.1544 38.4731 36.6975 38.6624 36.3606 38.9993C36.0237 39.3362 35.8345 39.7931 35.8345 40.2696Z" fill="#2488FF"/>
<path d="M42.2715 36.0778L39.8763 25.449C39.7266 24.7005 38.6787 24.1017 37.6308 24.1017H9.03797C7.99006 24.1017 6.94216 24.7005 6.79246 25.449L4.39725 36.2275L1.70264 35.479L4.09785 24.7005C4.54695 22.6047 6.64276 20.958 9.18767 20.958H37.7805C40.1757 20.958 42.4212 22.455 42.8703 24.7005L45.2655 35.479L42.2715 36.0778Z" fill="#FFB300"/>
<path d="M38.9785 47.9043H7.84078C3.64917 47.9043 0.206055 44.4612 0.206055 40.2696V39.9702C0.206055 35.7786 3.64917 32.3354 7.84078 32.3354H38.9785C43.1701 32.3354 46.6132 35.7786 46.6132 39.9702V40.2696C46.6132 44.4612 43.1701 47.9043 38.9785 47.9043ZM7.84078 35.3295C5.29587 35.3295 3.05037 37.4253 3.05037 40.1199V40.4193C3.05037 42.9642 5.14617 45.2097 7.84078 45.2097H38.9785C41.5234 45.2097 43.7689 43.1139 43.7689 40.4193V40.1199C43.7689 37.575 41.6731 35.3295 38.9785 35.3295H7.84078Z" fill="#424242"/>
<path d="M17.571 41.6168H10.5351C9.78659 41.6168 9.03809 41.018 9.03809 40.1198C9.03809 39.3713 9.63689 38.6228 10.5351 38.6228H17.7207C18.4692 38.6228 19.2177 39.2216 19.2177 40.1198C19.068 41.018 18.4692 41.6168 17.571 41.6168Z" fill="#FFD980"/>
<path d="M45.4153 17.6647H1.40332L4.09793 4.04192C4.54703 1.64671 6.64284 0 9.03805 0H37.6309C40.1758 0 42.2716 1.64671 42.7207 4.04192L45.4153 17.6647ZM4.84643 14.8204H41.9722L39.8764 4.49102C39.7267 3.59281 38.8285 2.84431 37.6309 2.84431H9.03805C7.99015 2.84431 7.09194 3.59281 6.94224 4.49102L4.84643 14.8204Z" fill="#424242"/>
<path d="M38.8284 26.9462H7.99006C4.39725 26.9462 1.70264 24.1019 1.70264 20.6588C1.70264 17.2156 4.54695 14.3713 7.99006 14.3713H38.9781C42.4212 14.3713 45.2655 17.2156 45.2655 20.6588C45.1158 24.1019 42.4212 26.9462 38.8284 26.9462Z" fill="white"/>
<path d="M38.9785 28.4431H7.84078C3.64917 28.4431 0.206055 25 0.206055 20.8084V20.509C0.206055 16.3174 3.64917 12.8743 7.84078 12.8743H38.9785C43.1701 12.8743 46.6132 16.3174 46.6132 20.509V20.8084C46.6132 25 43.1701 28.4431 38.9785 28.4431ZM7.84078 15.8683C5.29587 15.8683 3.05037 17.9641 3.05037 20.6587V20.9581C3.05037 23.503 5.14617 25.7485 7.84078 25.7485H38.9785C41.5234 25.7485 43.7689 23.6527 43.7689 20.9581V20.6587C43.7689 18.1138 41.6731 15.8683 38.9785 15.8683H7.84078Z" fill="#424242"/>
<path d="M24.7568 20.958C24.7568 21.1939 24.8033 21.4275 24.8936 21.6455C24.9839 21.8634 25.1162 22.0615 25.283 22.2283C25.4498 22.3951 25.6478 22.5274 25.8658 22.6177C26.0837 22.708 26.3173 22.7544 26.5532 22.7544C26.7892 22.7544 27.0227 22.708 27.2407 22.6177C27.4586 22.5274 27.6567 22.3951 27.8235 22.2283C27.9903 22.0615 28.1226 21.8634 28.2129 21.6455C28.3032 21.4275 28.3497 21.1939 28.3497 20.958C28.3497 20.7221 28.3032 20.4885 28.2129 20.2706C28.1226 20.0526 27.9903 19.8546 27.8235 19.6878C27.6567 19.521 27.4586 19.3886 27.2407 19.2984C27.0227 19.2081 26.7892 19.1616 26.5532 19.1616C26.3173 19.1616 26.0837 19.2081 25.8658 19.2984C25.6478 19.3886 25.4498 19.521 25.283 19.6878C25.1162 19.8546 24.9839 20.0526 24.8936 20.2706C24.8033 20.4885 24.7568 20.7221 24.7568 20.958Z" fill="#FFB300"/>
<path d="M29.9961 20.958C29.9961 21.4345 30.1854 21.8914 30.5222 22.2283C30.8591 22.5652 31.3161 22.7544 31.7925 22.7544C32.2689 22.7544 32.7259 22.5652 33.0628 22.2283C33.3996 21.8914 33.5889 21.4345 33.5889 20.958C33.5889 20.4816 33.3996 20.0247 33.0628 19.6878C32.7259 19.3509 32.2689 19.1616 31.7925 19.1616C31.3161 19.1616 30.8591 19.3509 30.5222 19.6878C30.1854 20.0247 29.9961 20.4816 29.9961 20.958Z" fill="#FFB300"/>
<path d="M35.2358 20.8084C35.2358 21.3246 35.4251 21.8196 35.762 22.1845C36.0989 22.5495 36.5558 22.7545 37.0322 22.7545C37.5087 22.7545 37.9656 22.5495 38.3025 22.1845C38.6394 21.8196 38.8287 21.3246 38.8287 20.8084C38.8287 20.2923 38.6394 19.7973 38.3025 19.4323C37.9656 19.0673 37.5087 18.8623 37.0322 18.8623C36.5558 18.8623 36.0989 19.0673 35.762 19.4323C35.4251 19.7973 35.2358 20.2923 35.2358 20.8084Z" fill="#FFB300"/>
<path d="M24.4575 36.5268C24.4575 38.0995 24.7673 39.6569 25.3691 41.1099C25.971 42.5629 26.8531 43.8831 27.9652 44.9952C29.0773 46.1073 30.3975 46.9894 31.8505 47.5913C33.3035 48.1931 34.8609 48.5029 36.4336 48.5029C38.0063 48.5029 39.5636 48.1931 41.0166 47.5913C42.4696 46.9894 43.7898 46.1073 44.9019 44.9952C46.014 43.8831 46.8961 42.5629 47.498 41.1099C48.0998 39.6569 48.4096 38.0995 48.4096 36.5268C48.4096 33.3506 47.1479 30.3044 44.9019 28.0585C42.656 25.8125 39.6098 24.5508 36.4336 24.5508C33.2573 24.5508 30.2112 25.8125 27.9652 28.0585C25.7193 30.3044 24.4575 33.3506 24.4575 36.5268Z" fill="#FFB300"/>
<path d="M36.4333 50.0001C32.9902 50.0001 29.5471 48.6528 26.8525 46.1079C21.613 40.8684 21.613 32.3354 26.8525 27.0959C32.092 21.8564 40.6249 21.8564 45.8645 27.0959C51.104 32.3354 51.104 40.8684 45.8645 46.1079C43.3196 48.6528 39.8764 50.0001 36.4333 50.0001ZM36.4333 26.048C33.7387 26.048 31.0441 27.0959 29.098 29.042C25.0561 33.0839 25.0561 39.8204 29.098 43.8624C33.1399 47.9043 39.8764 47.9043 43.9184 43.8624C47.9603 39.8204 47.9603 33.0839 43.9184 29.042C41.6729 27.0959 38.9782 26.048 36.4333 26.048Z" fill="white"/>
<path d="M30.5 39L33.5 35L38.5 39L43.5 32.5" stroke="#FDFDFD" stroke-width="2"/>
</g>
<defs>
<clipPath id="clip0_678_14497">
<rect width="50" height="50" fill="white"/>
</clipPath>
</defs>
</svg>
