<svg xmlns="http://www.w3.org/2000/svg" xmlns:xlink="http://www.w3.org/1999/xlink" fill="none" version="1.1" width="20" height="20" viewBox="0 0 20 20"><clipPath id="master_svg0_0_935"><rect x="0" y="0" width="20" height="20" rx="0"/></clipPath><g clip-path="url(#master_svg0_0_935)" style="mix-blend-mode:passthrough"><g><g style="mix-blend-mode:passthrough"><path d="M2.3533298011368093,0.0041664611925725905C1.7167598011368093,0.04157680119257259,1.1185398011368093,0.3208278011925726,0.6810698011368091,0.7847828011925726C0.24360380113680918,1.2487398011925726,-0.00003571856319080342,1.8623198011925726,-1.9497914080342218e-7,2.4999998011925726C-1.9497914080342218e-7,2.4999998011925726,-1.9497914080342218e-7,17.499999801192573,-1.9497914080342218e-7,17.499999801192573C-1.9497914080342218e-7,17.499999801192573,0.0041664611368091966,17.64669980119257,0.0041664611368091966,17.64669980119257C0.0415768011368092,18.283199801192573,0.3208278011368092,18.88149980119257,0.7847828011368092,19.318899801192572C1.2487398011368092,19.756399801192572,1.8623198011368092,19.999999801192573,2.499999801136809,19.999999801192573C2.499999801136809,19.999999801192573,13.333299801136809,19.999999801192573,13.333299801136809,19.999999801192573C13.333299801136809,19.999999801192573,13.47999980113681,19.99579980119257,13.47999980113681,19.99579980119257C14.11659980113681,19.958399801192574,14.71479980113681,19.679199801192574,15.15229980113681,19.215199801192572C15.58969980113681,18.751299801192573,15.833399801136808,18.13769980119257,15.833299801136809,17.499999801192573C15.833299801136809,17.499999801192573,15.833299801136809,15.051699801192573,15.833299801136809,15.051699801192573C15.833299801136809,15.051699801192573,15.82749980113681,14.954199801192573,15.82749980113681,14.954199801192573C15.80239980113681,14.743299801192572,15.697699801136809,14.549899801192572,15.53489980113681,14.413599801192573C15.371999801136809,14.277199801192573,15.163199801136809,14.208199801192572,14.95119980113681,14.220699801192573C14.73909980113681,14.233099801192573,14.539799801136809,14.326099801192573,14.39399980113681,14.480499801192572C14.24819980113681,14.634999801192572,14.16689980113681,14.839299801192572,14.16669980113681,15.051699801192573C14.16669980113681,15.051699801192573,14.16669980113681,17.499999801192573,14.16669980113681,17.499999801192573C14.16669980113681,17.499999801192573,14.16079980113681,17.597499801192573,14.16079980113681,17.597499801192573C14.13699980113681,17.800199801192573,14.03949980113681,17.987099801192574,13.88699980113681,18.12269980119257C13.73439980113681,18.258399801192574,13.537399801136809,18.333299801192574,13.333299801136809,18.333299801192574C13.333299801136809,18.333299801192574,2.499999801136809,18.333299801192574,2.499999801136809,18.333299801192574C2.499999801136809,18.333299801192574,2.402499801136809,18.327499801192573,2.402499801136809,18.327499801192573C2.1997898011368093,18.303599801192572,2.0128998011368093,18.20619980119257,1.8772598011368091,18.053599801192572C1.7416298011368092,17.901099801192572,1.6666898011368092,17.704099801192573,1.6666698011368093,17.499999801192573C1.6666698011368093,17.499999801192573,1.6666698011368093,2.4999998011925726,1.6666698011368093,2.4999998011925726C1.6666698011368093,2.4999998011925726,1.6724998011368093,2.4024998011925724,1.6724998011368093,2.4024998011925724C1.6963798011368092,2.1997898011925727,1.7938298011368092,2.0128998011925727,1.9463598011368093,1.8772598011925725C2.098889801136809,1.7416298011925726,2.295889801136809,1.6666898011925726,2.499999801136809,1.6666698011925727C2.499999801136809,1.6666698011925727,13.333299801136809,1.6666698011925727,13.333299801136809,1.6666698011925727C13.333299801136809,1.6666698011925727,13.430799801136809,1.6724998011925727,13.430799801136809,1.6724998011925727C13.633499801136809,1.6963798011925726,13.820399801136809,1.7938298011925726,13.956099801136808,1.9463598011925727C14.091699801136809,2.0988898011925725,14.16659980113681,2.2958898011925726,14.16669980113681,2.4999998011925726C14.16669980113681,2.4999998011925726,14.16669980113681,5.1041698011925725,14.16669980113681,5.1041698011925725C14.16669980113681,5.1041698011925725,14.172499801136809,5.201669801192573,14.172499801136809,5.201669801192573C14.197599801136809,5.412579801192573,14.30229980113681,5.605949801192573,14.465099801136809,5.742279801192573C14.62799980113681,5.878599801192572,14.83679980113681,5.9475898011925725,15.04879980113681,5.935139801192572C15.260899801136809,5.9226998011925724,15.46019980113681,5.829749801192572,15.605999801136809,5.675309801192572C15.751799801136809,5.5208598011925725,15.83309980113681,5.316569801192572,15.833299801136809,5.1041698011925725C15.833299801136809,5.1041698011925725,15.833299801136809,2.4999998011925726,15.833299801136809,2.4999998011925726C15.833299801136809,2.4999998011925726,15.82919980113681,2.3533298011925727,15.82919980113681,2.3533298011925727C15.79179980113681,1.7167598011925727,15.512499801136808,1.1185398011925727,15.04849980113681,0.6810698011925725C14.58459980113681,0.24360380119257258,13.97099980113681,-0.00003571350742740952,13.333299801136809,-1.9492446740951974e-7C13.333299801136809,-1.9492446740951974e-7,2.499999801136809,-1.9492446740951974e-7,2.499999801136809,-1.9492446740951974e-7C2.499999801136809,-1.9492446740951974e-7,2.3533298011368093,0.0041664611925725905,2.3533298011368093,0.0041664611925725905ZM16.07739980113681,7.810739801192573C15.921099801136808,7.967019801192572,15.833299801136809,8.178989801192573,15.833299801136809,8.399999801192573C15.833299801136809,8.399999801192573,15.833299801136809,9.166669801192572,15.833299801136809,9.166669801192572C15.833299801136809,9.166669801192572,8.33332980113681,9.166669801192572,8.33332980113681,9.166669801192572C8.11231980113681,9.166669801192572,7.900359801136809,9.254459801192572,7.7440798011368095,9.410739801192573C7.587799801136809,9.567019801192572,7.499999801136809,9.778989801192573,7.499999801136809,9.999999801192573C7.499999801136809,10.220999801192573,7.587799801136809,10.432999801192572,7.7440798011368095,10.589299801192572C7.900359801136809,10.745499801192572,8.11231980113681,10.833299801192572,8.33332980113681,10.833299801192572C8.33332980113681,10.833299801192572,15.833299801136809,10.833299801192572,15.833299801136809,10.833299801192572C15.833299801136809,10.833299801192572,15.833299801136809,11.599999801192572,15.833299801136809,11.599999801192572C15.83359980113681,11.756799801192573,15.87799980113681,11.910399801192572,15.96159980113681,12.042999801192572C16.04519980113681,12.175699801192573,16.16449980113681,12.282099801192572,16.30589980113681,12.349999801192572C16.447199801136808,12.417899801192572,16.60489980113681,12.444499801192572,16.76069980113681,12.426799801192573C16.91649980113681,12.409099801192573,17.06409980113681,12.347799801192572,17.186699801136808,12.249999801192573C17.186699801136808,12.249999801192573,19.186699801136808,10.649999801192573,19.186699801136808,10.649999801192573C19.283999801136808,10.571899801192572,19.36249980113681,10.472999801192573,19.41649980113681,10.360499801192573C19.47049980113681,10.247999801192572,19.49849980113681,10.124799801192573,19.49849980113681,9.999999801192573C19.49849980113681,9.875219801192573,19.47049980113681,9.752029801192572,19.41649980113681,9.639529801192573C19.36249980113681,9.527029801192572,19.283999801136808,9.428079801192572,19.186699801136808,9.349999801192572C19.186699801136808,9.349999801192572,17.18749980113681,7.749999801192573,17.18749980113681,7.749999801192573C17.03979980113681,7.631479801192572,16.85609980113681,7.566809801192573,16.666699801136808,7.566669801192573C16.666699801136808,7.566669801192573,16.666699801136808,7.566669801192573,16.666699801136808,7.566669801192573C16.445699801136808,7.566669801192573,16.233699801136808,7.654459801192573,16.07739980113681,7.810739801192573Z" fill="#FFB300" fill-opacity="1"/></g></g></g></svg>