<svg width="50" height="50" viewBox="0 0 50 50" fill="none" xmlns="http://www.w3.org/2000/svg">
<path d="M46.9998 24.0001C46.4998 35 39.1998 47.1001 21.9998 45.5001C19.4996 36.5 29.4999 19.5002 46.9998 24.0001Z" fill="#FFD980"/>
<path d="M25 2C12.2973 2 2 12.2973 2 25C2 37.7027 12.2973 48 25 48C37.7027 48 48 37.7027 48 25C48 12.2973 37.7027 2 25 2ZM25 5.36585C35.8437 5.36585 44.6341 14.1563 44.6341 25C44.6341 35.8437 35.8437 44.6341 25 44.6341C14.1563 44.6341 5.36585 35.8437 5.36585 25C5.36585 14.1563 14.1563 5.36585 25 5.36585Z" fill="#424242"/>
<path d="M25.2006 13C25.6479 13 26.0792 13.1603 26.4103 13.4495C26.7414 13.7387 26.9487 14.1362 26.9916 14.5643L27 14.7305V26.2669C27 27.6235 25.4621 28.4334 24.2841 27.7562L24.1546 27.6754L15.7575 21.9073C15.38 21.6494 15.1204 21.2616 15.0326 20.8244C14.9449 20.3871 15.0357 19.9342 15.2863 19.5598C15.5369 19.1854 15.928 18.9183 16.3781 18.814C16.8283 18.7098 17.3029 18.7764 17.7032 19.0001L17.8496 19.0901L23.4013 22.904V14.7305C23.4013 14.3003 23.5679 13.8855 23.8686 13.5671C24.1694 13.2487 24.5827 13.0494 25.0279 13.0081L25.2006 13Z" fill="#FFB300"/>
<path d="M23.3235 6H26.6765V11.5882H23.3235V6ZM11.5882 22.7647V26.1176H6V22.7647H11.5882ZM23.3235 38.4118H26.6765V44H23.3235V38.4118ZM44 22.7647V26.1176H38.4118V22.7647H44Z" fill="#424242"/>
</svg>
