<svg width="50" height="50" viewBox="0 0 50 50" fill="none" xmlns="http://www.w3.org/2000/svg">
<g clip-path="url(#clip0_531_14379)">
<path d="M3.89038 42.7954H42.7953V47.1182H3.89038V42.7954Z" fill="#FFE199"/>
<path opacity="0.7" d="M33.4295 29.5389H13.2566C12.392 29.5389 11.8157 28.9625 11.8157 28.098C11.8157 27.2334 12.392 26.6571 13.2566 26.6571H33.4295C34.2941 26.6571 34.8704 27.2334 34.8704 28.098C34.8704 28.9625 34.15 29.5389 33.4295 29.5389ZM33.4295 35.4467H13.2566C12.392 35.4467 11.8157 34.8703 11.8157 34.0058C11.8157 33.1412 12.392 32.5648 13.2566 32.5648H33.4295C34.2941 32.5648 34.8704 33.1412 34.8704 34.0058C34.8704 34.8703 34.15 35.4467 33.4295 35.4467ZM31.7004 17.8674H21.9021C21.0376 17.8674 20.4612 17.2911 20.4612 16.4265C20.4612 15.562 21.0376 14.9856 21.9021 14.9856H31.7004C32.5649 14.9856 33.1413 15.562 33.1413 16.4265C33.1413 17.2911 32.5649 17.8674 31.7004 17.8674ZM33.4295 23.7752H13.2566C12.392 23.7752 11.8157 23.1988 11.8157 22.3343C11.8157 21.4697 12.392 20.8934 13.2566 20.8934H33.4295C34.2941 20.8934 34.8704 21.4697 34.8704 22.3343C34.8704 23.1988 34.15 23.7752 33.4295 23.7752Z" fill="#FFB300"/>
<path d="M38.0402 48.5591H7.92497C4.89903 48.5591 2.44946 45.9654 2.44946 42.9395V15.9942C2.44946 15.1297 2.73765 14.4092 3.31402 13.8329L15.7059 1.00865C16.2823 0.288184 17.0028 0 17.8673 0H38.0402C41.0662 0 43.5157 2.59366 43.5157 5.6196V42.7954C43.5157 45.9654 41.0662 48.5591 38.0402 48.5591ZM17.8673 2.88184L5.33131 15.8501V42.9395C5.33131 44.5245 6.48405 45.6772 7.92497 45.6772H38.0402C39.4812 45.6772 40.6339 44.3804 40.6339 42.9395V5.6196C40.6339 4.03458 39.4812 2.88184 38.0402 2.88184H17.8673Z" fill="#424242"/>
<path d="M18.4437 2.73779L18.5878 13.6888C18.5878 15.2738 17.4351 16.5706 15.8501 16.5706L5.18726 16.7147" fill="#FFE199"/>
<path d="M5.18726 18.1557V15.2738L15.8501 15.1297C16.5705 15.1297 17.1469 14.4093 17.1469 13.6888L17.0028 2.73779H19.8847L20.0288 13.6888C20.0288 16.1384 18.1556 18.0116 15.8501 18.1557H5.18726Z" fill="#424242"/>
<path d="M23.0547 37.0318C23.0547 40.089 24.2692 43.0211 26.431 45.1829C28.5928 47.3447 31.5248 48.5591 34.5821 48.5591C37.6393 48.5591 40.5714 47.3447 42.7332 45.1829C44.895 43.0211 46.1094 40.089 46.1094 37.0318C46.1094 33.9745 44.895 31.0425 42.7332 28.8807C40.5714 26.7189 37.6393 25.5044 34.5821 25.5044C31.5248 25.5044 28.5928 26.7189 26.431 28.8807C24.2692 31.0425 23.0547 33.9745 23.0547 37.0318Z" fill="#FFB300"/>
<path d="M34.582 50C31.2678 50 27.9537 48.7032 25.3601 46.2536C20.3168 41.2104 20.3168 32.9971 25.3601 27.9539C27.8096 25.5043 31.1237 24.2075 34.582 24.2075C38.0402 24.2075 41.3543 25.5043 43.8039 27.9539C46.2534 30.4035 47.5503 33.7176 47.5503 37.1758C47.5503 40.634 46.2534 43.9482 43.8039 46.3977C41.2102 48.7032 37.8961 50 34.582 50ZM34.582 26.9453C31.8442 26.9453 29.3946 27.9539 27.5214 29.9712C23.631 33.8617 23.631 40.3459 27.5214 44.2363C31.4119 48.1268 37.8961 48.1268 41.7866 44.2363C43.6598 42.3631 44.8125 39.7695 44.8125 37.1758C44.8125 34.5822 43.8039 31.9885 41.7866 30.1153C39.7693 27.9539 37.3197 26.9453 34.582 26.9453Z" fill="white"/>
<rect x="27" y="37" width="3" height="5" rx="1" fill="white"/>
<rect x="32" y="34" width="3" height="8" rx="1" fill="white"/>
<rect x="37" y="31" width="3" height="11" rx="1" fill="white"/>
</g>
<defs>
<clipPath id="clip0_531_14379">
<rect width="50" height="50" fill="white"/>
</clipPath>
</defs>
</svg>
