<svg width="50" height="50" viewBox="0 0 50 50" fill="none" xmlns="http://www.w3.org/2000/svg">
<path opacity="0.4" d="M6 30H43V33H6V30Z" fill="#FFB300"/>
<path opacity="0.5" d="M26.6726 12.6H14.3274C13.531 12.6 13 12.08 13 11.3C13 10.52 13.531 10 14.3274 10H26.6726C27.469 10 28 10.52 28 11.3C28 12.08 27.469 12.6 26.6726 12.6ZM26.6726 17.8H14.3274C13.531 17.8 13 17.28 13 16.5C13 15.72 13.531 15.2 14.3274 15.2H26.6726C27.469 15.2 28 15.72 28 16.5C28 17.28 27.469 17.8 26.6726 17.8ZM26.6726 23H14.3274C13.531 23 13 22.48 13 21.7C13 20.92 13.531 20.4 14.3274 20.4H26.6726C27.469 20.4 28 20.92 28 21.7C28 22.48 27.469 23 26.6726 23Z" fill="#FFB300"/>
<path opacity="0.5" d="M34 29V13.5C34 12.125 34.5294 11 35.0588 11H41.9412C42.4706 11 43 12.125 43 13.5V27.5" fill="#FFB300"/>
<path d="M35.3111 29.247H32.7556V12.9442C32.7556 10.5777 33.65 9 35.0556 9H41.7C43.1056 9 44 10.5777 44 12.9442V27.6693H41.4444V12.9442C41.4444 12.2869 41.3167 11.8924 41.3167 11.6295H35.4389C35.3111 11.8924 35.3111 12.4183 35.3111 12.9442V29.247ZM25.2167 42C22.9167 42 21 40.1594 21 37.9243C21 35.6892 22.9167 33.8486 25.2167 33.8486C27.5167 33.8486 29.4333 35.6892 29.4333 37.9243C29.4333 40.1594 27.5167 42 25.2167 42ZM25.2167 36.6096C24.3222 36.6096 23.5556 37.2669 23.5556 38.0558C23.5556 38.8446 24.3222 39.502 25.2167 39.502C26.1111 39.502 26.8778 38.8446 26.8778 38.0558C26.8778 37.2669 26.1111 36.6096 25.2167 36.6096Z" fill="#424242"/>
<path d="M34.8705 28H32.2813V7.74359C32.2813 6.58974 31.5045 5.5641 30.4688 5.5641H10.4018C9.36607 5.5641 8.58929 6.58974 8.58929 7.74359V28H6V7.74359C6 5.17949 7.94196 3 10.4018 3H30.5982C32.9286 3 35 5.17949 35 7.74359V28H34.8705Z" fill="#424242"/>
<path d="M40.75 47H9.25C6.3625 47 4 44.6735 4 41.8299V29.6803C4 28.7755 4.7875 28 5.70625 28H44.2938C45.2125 28 46 28.7755 46 29.6803V41.8299C46 44.6735 43.6375 47 40.75 47ZM6.625 30.4558V41.8299C6.625 43.2517 7.80625 44.415 9.25 44.415H40.75C42.1938 44.415 43.375 43.2517 43.375 41.8299V30.585H6.625V30.4558Z" fill="#FFB300"/>
</svg>
