<svg width="50" height="50" viewBox="0 0 50 50" fill="none" xmlns="http://www.w3.org/2000/svg">
<rect x="5" y="11" width="40" height="3" fill="#FFE199"/>
<rect x="5" y="42" width="40" height="3" fill="#FFE199"/>
<path d="M43.0714 34H6.92857C4.3 34 2 36.275 2 38.875V42.125C2 44.725 4.3 47 6.92857 47H42.0714C44.7 47 48 43.725 48 41.125V38.875C48 36.275 45.7 34 43.0714 34ZM44.7143 42.125C44.7143 43.1 44.0571 43.75 43.0714 43.75H6.92857C5.94286 43.75 5.28571 43.1 5.28571 42.125V38.875C5.28571 37.9 5.94286 37.25 6.92857 37.25H43.0714C44.0571 37.25 44.7143 37.9 44.7143 38.875V42.125Z" fill="#424242"/>
<path d="M38 40.5C38 41.163 38.2107 41.7989 38.5858 42.2678C38.9609 42.7366 39.4696 43 40 43C40.5304 43 41.0391 42.7366 41.4142 42.2678C41.7893 41.7989 42 41.163 42 40.5C42 39.837 41.7893 39.2011 41.4142 38.7322C41.0391 38.2634 40.5304 38 40 38C39.4696 38 38.9609 38.2634 38.5858 38.7322C38.2107 39.2011 38 39.837 38 40.5Z" fill="#424242"/>
<path d="M43.0714 19H6.92857C4.3 19 2 21.1 2 23.5V26.5C2 28.9 4.3 31 6.92857 31H43.0714C45.7 31 48 28.9 48 26.5V23.5C48 21.1 45.7 19 43.0714 19ZM44.7143 26.5C44.7143 27.4 44.0571 28 43.0714 28H6.92857C5.94286 28 5.28571 27.4 5.28571 26.5V23.5C5.28571 22.6 5.94286 22 6.92857 22H43.0714C44.0571 22 44.7143 22.6 44.7143 23.5V26.5Z" fill="#FFB300"/>
<path d="M43.0714 3H6.92857C4.3 3 2 4.95 2 7.875V11.125C2 13.725 4.3 16 6.92857 16H43.0714C45.7 16 48 13.725 48 11.125V7.875C48 4.95 45.7 3 43.0714 3ZM44.7143 11.125C44.7143 12.1 44.0571 12.75 43.0714 12.75H6.92857C5.94286 12.75 5.28571 12.1 5.28571 11.125V7.875C5.28571 6.9 5.94286 6.25 6.92857 6.25H43.0714C44.0571 6.25 44.7143 6.9 44.7143 7.875V11.125Z" fill="#424242"/>
<path d="M38 9.5C38 10.163 38.2107 10.7989 38.5858 11.2678C38.9609 11.7366 39.4696 12 40 12C40.5304 12 41.0391 11.7366 41.4142 11.2678C41.7893 10.7989 42 10.163 42 9.5C42 8.83696 41.7893 8.20107 41.4142 7.73223C41.0391 7.26339 40.5304 7 40 7C39.4696 7 38.9609 7.26339 38.5858 7.73223C38.2107 8.20107 38 8.83696 38 9.5Z" fill="#424242"/>
<path d="M25.5281 36.2683C25.5281 39.4314 26.7846 42.4649 29.0213 44.7016C31.2579 46.9382 34.2915 48.1948 37.4546 48.1948C40.6177 48.1948 43.6512 46.9382 45.8879 44.7016C48.1245 42.4649 49.381 39.4314 49.381 36.2683C49.381 33.1052 48.1245 30.0716 45.8879 27.835C43.6512 25.5983 40.6177 24.3418 37.4546 24.3418C34.2915 24.3418 31.2579 25.5983 29.0213 27.835C26.7846 30.0716 25.5281 33.1052 25.5281 36.2683Z" fill="#FFB300"/>
<path d="M37.5173 49C34.3273 49 31.1373 47.743 28.6408 45.3687C23.7864 40.4804 23.7864 32.5196 28.6408 27.6313C30.9986 25.257 34.1886 24 37.5173 24C40.846 24 44.0361 25.257 46.3939 27.6313C48.7517 30.0056 50 33.2179 50 36.5698C50 39.9218 48.7517 43.1341 46.3939 45.5084C43.8974 47.743 40.7074 49 37.5173 49ZM37.5173 26.6536C34.8821 26.6536 32.5243 27.6313 30.7212 29.5866C26.9764 33.3575 26.9764 39.6425 30.7212 43.4134C34.466 47.1844 40.7074 47.1844 44.4522 43.4134C46.2552 41.5978 47.3648 39.0838 47.3648 36.5698C47.3648 34.0559 46.3939 31.5419 44.4522 29.7263C42.5104 27.6313 40.1526 26.6536 37.5173 26.6536Z" fill="white"/>
<path d="M42.2253 39.6971H34.7712V32.243C34.7712 31.3485 35.3676 30.7522 36.2621 30.7522C37.1565 30.7522 37.7529 31.3485 37.7529 32.243V36.7154H42.2253C43.1198 36.7154 43.7161 37.3118 43.7161 38.2062C43.7161 38.9517 43.1198 39.6971 42.2253 39.6971Z" fill="white"/>
</svg>
