<svg width="50" height="50" viewBox="0 0 50 50" fill="none" xmlns="http://www.w3.org/2000/svg">
<path d="M4.85303 44.4119H46.0295V47.353H4.85303V44.4119Z" fill="#FFE199"/>
<path d="M42.3532 50.0001H7.64729C5.00023 50.0001 2.94141 47.9412 2.94141 45.4412V7.79418C2.94141 5.29418 5.00023 3.23535 7.64729 3.23535H9.85317C10.7355 3.23535 11.3238 3.82359 11.3238 4.70594C11.3238 5.58829 10.7355 6.17653 9.85317 6.17653H7.64729C6.61788 6.17653 5.88258 6.91182 5.88258 7.79418V45.5883C5.88258 46.3236 6.61788 47.0589 7.64729 47.0589H42.3532C43.3826 47.0589 44.1179 46.3236 44.1179 45.4412V7.79418C44.1179 6.91182 43.3826 6.17653 42.3532 6.17653H40.1473C39.2649 6.17653 38.6767 5.58829 38.6767 4.70594C38.6767 3.82359 39.2649 3.23535 40.1473 3.23535H42.3532C45.0002 3.23535 47.0591 5.29418 47.0591 7.79418V45.5883C47.0591 47.9412 45.0002 50.0001 42.3532 50.0001Z" fill="#424242"/>
<path opacity="0.8" d="M33.9705 8.38235H16.0294C13.6764 8.38235 11.7646 6.47059 11.7646 4.26471C11.7646 2.05882 13.6764 0 16.0294 0H34.1176C36.3235 0 38.2352 1.91176 38.2352 4.26471C38.2352 6.61765 36.3235 8.38235 33.9705 8.38235ZM16.0294 2.94118C15.2941 2.94118 14.7058 3.52941 14.7058 4.26471C14.7058 5 15.2941 5.58823 16.0294 5.58823H34.1176C34.8529 5.58823 35.4411 5 35.4411 4.26471C35.4411 3.52941 34.7058 2.94118 33.9705 2.94118H16.0294Z" fill="#FFB300"/>
<rect x="10" y="15" width="23" height="3" rx="1.5" fill="#424242"/>
<rect x="10" y="22" width="16" height="3" rx="1.5" fill="#FFB300"/>
<rect x="10" y="29" width="10" height="3" rx="1.5" fill="#FFB300"/>
<rect x="36.5732" y="35" width="6.16339" height="2" rx="1" transform="rotate(51.8652 36.5732 35)" fill="#424242"/>
<circle cx="32.5" cy="30.5" r="6.5" fill="#FFD980" stroke="#424242" stroke-width="2"/>
</svg>
