<svg width="50" height="50" viewBox="0 0 50 50" fill="none" xmlns="http://www.w3.org/2000/svg">
<g clip-path="url(#clip0_531_14373)">
<path opacity="0.8" d="M42.0566 12.7989H24.4166V6.91895H37.7495C40.1309 6.91895 42.0566 8.84464 42.0566 11.226V12.7989Z" fill="#FFC233"/>
<path opacity="0.4" d="M1.45532 20.7371H48.2453V23.6771H1.45532V20.7371Z" fill="#FFE199"/>
<path d="M1.45532 18.532H48.2453V21.472H1.45532V18.532Z" fill="#FFB300" fill-opacity="0.8"/>
<path d="M45.5699 47.0499H4.43934C3.26838 47.0499 2.14517 46.5857 1.3158 45.7591C0.486427 44.9325 0.0185387 43.8108 0.0146484 42.6399V7.13944C0.0146484 4.83155 1.91094 2.94995 4.23354 2.94995H21.1238C23.1083 2.94995 24.74 4.56695 24.74 6.55144V12.0198H46.0109C48.2159 12.0198 50.0092 13.8132 50.0092 16.0182V42.6399C49.9945 45.0654 48.0101 47.0499 45.5699 47.0499ZM4.23354 5.88995C4.06752 5.888 3.90274 5.91878 3.74862 5.98053C3.5945 6.04227 3.45405 6.13377 3.33529 6.2498C3.21653 6.36583 3.12179 6.50412 3.05648 6.65676C2.99117 6.80941 2.95656 6.97342 2.95464 7.13944V42.6399C2.95464 43.4484 3.61614 44.1099 4.43934 44.1099H45.5699C46.3931 44.1099 47.0546 43.4484 47.0546 42.6399V16.0182C47.0546 15.4302 46.5842 14.9598 45.9962 14.9598H21.7853V6.55144C21.7853 6.18394 21.4913 5.88995 21.1091 5.88995H4.23354Z" fill="#424242"/>
<path d="M32.2665 31.762H35.2947V34.702H32.2665V31.762ZM32.2665 36.9069H35.2947V39.8469H32.2665V36.9069ZM37.5585 31.762H40.5867V34.702H37.5585V31.762ZM37.5585 36.9069H40.5867V39.8469H37.5585V36.9069Z" fill="#FFB300"/>
</g>
<defs>
<clipPath id="clip0_531_14373">
<rect width="50" height="50" fill="white"/>
</clipPath>
</defs>
</svg>
